<svg width="1440" height="425" viewBox="0 0 1440 425" fill="none" xmlns="http://www.w3.org/2000/svg">
<g clip-path="url(#clip0_9_3725)">
<path d="M-38.5 387C-38.9599 387 -39.4154 387.09 -39.8403 387.266C-40.2653 387.442 -40.6513 387.7 -40.9765 388.025C-41.3016 388.35 -41.5593 388.736 -41.7349 389.162C-41.9106 389.587 -42.0007 390.042 -42 390.502C-42.0001 390.962 -41.9097 391.417 -41.7338 391.841C-41.5579 392.266 -41.3001 392.652 -40.975 392.976C-40.65 393.301 -40.2641 393.559 -39.8394 393.735C-39.4147 393.91 -38.9596 394 -38.5 394C-37.5722 394 -36.6826 393.631 -36.0264 392.975C-35.3702 392.319 -35.0011 391.43 -35 390.502C-35 389.574 -35.3687 388.683 -36.025 388.026C-36.6813 387.37 -37.5715 387.001 -38.5 387ZM53.5 387C52.5716 387.001 51.6813 387.37 51.025 388.026C50.3687 388.683 50 389.574 50 390.502C50.0011 391.43 50.3702 392.319 51.0264 392.975C51.6826 393.631 52.5723 394 53.5 394C54.4277 394 55.3174 393.631 55.9736 392.975C56.6298 392.319 56.9989 391.43 57 390.502C57 389.574 56.6313 388.683 55.975 388.026C55.3187 387.37 54.4284 387.001 53.5 387ZM22.5 387C21.5716 387.001 20.6813 387.37 20.025 388.026C19.3687 388.683 19 389.574 19 390.502C19.0011 391.43 19.3702 392.319 20.0264 392.975C20.6826 393.631 21.5723 394 22.5 394C23.4277 394 24.3174 393.631 24.9736 392.975C25.6298 392.319 25.9989 391.43 26 390.502C26 389.574 25.6313 388.683 24.975 388.026C24.3187 387.37 23.4284 387.001 22.5 387ZM208.5 415C207.586 415.022 206.717 415.4 206.079 416.054C205.44 416.708 205.083 417.586 205.083 418.5C205.083 419.414 205.44 420.292 206.079 420.946C206.717 421.6 207.586 421.978 208.5 422C209.414 421.978 210.283 421.6 210.921 420.946C211.56 420.292 211.917 419.414 211.917 418.5C211.917 417.586 211.56 416.708 210.921 416.054C210.283 415.4 209.414 415.022 208.5 415ZM178.5 415C177.586 415.022 176.717 415.4 176.079 416.054C175.44 416.708 175.083 417.586 175.083 418.5C175.083 419.414 175.44 420.292 176.079 420.946C176.717 421.6 177.586 421.978 178.5 422C179.414 421.978 180.283 421.6 180.921 420.946C181.56 420.292 181.917 419.414 181.917 418.5C181.917 417.586 181.56 416.708 180.921 416.054C180.283 415.4 179.414 415.022 178.5 415ZM146.496 415C146.037 415 145.582 415.091 145.157 415.267C144.733 415.443 144.347 415.701 144.023 416.026C143.698 416.351 143.441 416.737 143.265 417.161C143.09 417.586 143 418.041 143 418.5C143 419.192 143.205 419.869 143.59 420.445C143.975 421.021 144.522 421.469 145.162 421.734C145.801 421.999 146.505 422.068 147.184 421.932C147.863 421.797 148.487 421.463 148.976 420.973C149.466 420.484 149.799 419.86 149.933 419.18C150.068 418.501 149.998 417.797 149.732 417.158C149.467 416.518 149.018 415.972 148.442 415.588C147.865 415.204 147.188 414.999 146.496 415ZM115.496 415C115.031 414.993 114.57 415.078 114.139 415.25C113.707 415.423 113.315 415.68 112.984 416.006C112.653 416.332 112.39 416.721 112.211 417.149C112.032 417.578 111.94 418.038 111.94 418.503C111.94 418.967 112.033 419.427 112.213 419.855C112.393 420.284 112.657 420.672 112.988 420.997C113.32 421.323 113.713 421.579 114.144 421.751C114.576 421.923 115.037 422.007 115.502 421.999C116.42 421.983 117.295 421.607 117.938 420.951C118.581 420.296 118.941 419.415 118.94 418.497C118.939 417.579 118.578 416.698 117.933 416.044C117.289 415.39 116.414 415.015 115.496 415ZM84.503 415C83.575 414.999 82.684 415.367 82.027 416.023C81.37 416.679 81.001 417.569 81 418.497C80.999 419.425 81.367 420.316 82.023 420.973C82.679 421.63 83.569 421.999 84.497 422C85.425 422.001 86.316 421.633 86.973 420.977C87.63 420.321 87.999 419.431 88 418.503C88.001 417.575 87.633 416.684 86.977 416.027C86.321 415.37 85.431 415.001 84.503 415ZM53.504 415C52.8116 414.999 52.1345 415.204 51.5584 415.588C50.9823 415.972 50.5331 416.518 50.2676 417.158C50.0021 417.797 49.9322 418.501 50.0668 419.18C50.2014 419.86 50.5344 420.484 51.0237 420.973C51.513 421.463 52.1367 421.797 52.8157 421.932C53.4948 422.068 54.1987 421.999 54.8385 421.734C55.4782 421.469 56.0251 421.021 56.4099 420.445C56.7946 419.869 57 419.192 57 418.5C57 416.567 55.437 415 53.504 415ZM22.5 415C21.5862 415.022 20.7172 415.4 20.0787 416.054C19.4401 416.708 19.0827 417.586 19.0827 418.5C19.0827 419.414 19.4401 420.292 20.0787 420.946C20.7172 421.6 21.5862 421.978 22.5 422C23.4138 421.978 24.2828 421.6 24.9213 420.946C25.5599 420.292 25.9173 419.414 25.9173 418.5C25.9173 417.586 25.5599 416.708 24.9213 416.054C24.2828 415.4 23.4138 415.022 22.5 415ZM-7.5 415C-7.9598 415 -8.4151 415.09 -8.84 415.265C-9.2649 415.441 -9.6509 415.699 -9.976 416.024C-10.3012 416.349 -10.5589 416.735 -10.7346 417.16C-10.9104 417.585 -11.0005 418.04 -11 418.5C-11 420.431 -9.439 422 -7.5 422C-6.5862 421.978 -5.7172 421.6 -5.0787 420.946C-4.4401 420.292 -4.0827 419.414 -4.0827 418.5C-4.0827 417.586 -4.4401 416.708 -5.0787 416.054C-5.7172 415.4 -6.5862 415.022 -7.5 415Z" fill="#306090"/>
<path d="M84 397C87.867 397 91 393.867 91 390C91 388.616 90.589 387.262 89.82 386.111C89.051 384.96 87.958 384.063 86.679 383.533C85.4 383.003 83.992 382.864 82.634 383.135C81.277 383.405 80.029 384.071 79.05 385.05C78.071 386.029 77.405 387.277 77.135 388.634C76.864 389.992 77.003 391.4 77.533 392.679C78.063 393.958 78.96 395.051 80.111 395.82C81.262 396.59 82.616 397 84 397Z" fill="#006FF2"/>
<path d="M209 425C210.591 425 212.117 424.368 213.243 423.243C214.368 422.117 215 420.591 215 419C215 417.409 214.368 415.883 213.243 414.757C212.117 413.632 210.591 413 209 413C207.409 413 205.883 413.632 204.757 414.757C203.632 415.883 203 417.409 203 419C203 420.591 203.632 422.117 204.757 423.243C205.883 424.368 207.409 425 209 425Z" fill="#006FF2"/>
</g>
<g clip-path="url(#clip1_9_3725)">
<path d="M1325.82 58.225C1325.88 58.343 1325.88 58.461 1325.94 58.579C1326 58.756 1326 58.875 1326 58.993C1326 59.17 1325.94 59.288 1325.94 59.406C1325.88 59.524 1325.88 59.642 1325.82 59.76L1325.65 60.114C1325.59 60.232 1325.53 60.292 1325.41 60.41C1325.33 60.5027 1325.23 60.5822 1325.12 60.646L1324.77 60.823C1324.65 60.882 1324.53 60.941 1324.41 60.941C1324.23 61 1324.18 61 1324 61C1323.82 61 1323.71 60.941 1323.59 60.941C1323.47 60.881 1323.35 60.881 1323.24 60.823C1323.12 60.763 1323 60.705 1322.88 60.646C1322.77 60.528 1322.65 60.469 1322.59 60.41C1322.5 60.3234 1322.42 60.2237 1322.35 60.114L1322.18 59.76C1322.12 59.642 1322.06 59.524 1322.06 59.406C1322 59.229 1322 59.11 1322 58.993C1322 58.816 1322.06 58.697 1322.06 58.579C1322.06 58.461 1322.12 58.343 1322.23 58.225L1322.41 57.871C1322.47 57.753 1322.53 57.694 1322.65 57.576C1322.71 57.516 1322.82 57.399 1322.94 57.339L1323.29 57.162C1323.41 57.103 1323.53 57.044 1323.65 57.044C1323.88 56.985 1324.18 56.985 1324.41 57.044C1324.53 57.104 1324.65 57.104 1324.77 57.162C1324.88 57.222 1325 57.28 1325.12 57.339C1325.24 57.399 1325.29 57.458 1325.41 57.576C1325.47 57.635 1325.59 57.753 1325.65 57.871L1325.82 58.225ZM1325.76 78.225C1325.82 78.343 1325.82 78.461 1325.94 78.579C1326 78.756 1326 78.875 1326 78.993C1326 79.17 1325.94 79.288 1325.94 79.406C1325.88 79.524 1325.88 79.642 1325.82 79.76L1325.65 80.114C1325.59 80.232 1325.53 80.292 1325.41 80.41C1325.33 80.5027 1325.23 80.5822 1325.12 80.646L1324.77 80.823C1324.65 80.882 1324.53 80.941 1324.41 80.941C1324.23 81 1324.18 81 1324 81C1323.82 81 1323.71 80.941 1323.59 80.941C1323.47 80.881 1323.35 80.881 1323.24 80.823C1323.12 80.763 1323 80.705 1322.88 80.646C1322.77 80.586 1322.71 80.528 1322.59 80.41C1322.5 80.3234 1322.42 80.2237 1322.35 80.114L1322.18 79.76C1322.12 79.642 1322.06 79.524 1322.06 79.406C1322 79.229 1322 79.11 1322 78.993C1322 78.815 1322.06 78.697 1322.06 78.579C1322.12 78.461 1322.12 78.343 1322.18 78.225L1322.35 77.871C1322.41 77.753 1322.47 77.694 1322.59 77.576C1322.65 77.516 1322.77 77.399 1322.88 77.339L1323.24 77.162C1323.35 77.103 1323.47 77.044 1323.59 77.044C1323.82 76.985 1324.12 76.985 1324.35 77.044C1324.47 77.104 1324.59 77.104 1324.71 77.162L1325.06 77.339C1325.18 77.399 1325.23 77.458 1325.35 77.576C1325.41 77.635 1325.53 77.753 1325.59 77.871L1325.77 78.225H1325.76ZM1325.77 98.225C1325.82 98.343 1325.82 98.461 1325.94 98.579C1326 98.756 1326 98.875 1326 98.993C1326 99.17 1325.94 99.288 1325.94 99.406C1325.88 99.524 1325.88 99.642 1325.82 99.76L1325.65 100.114C1325.59 100.232 1325.53 100.292 1325.41 100.41C1325.33 100.503 1325.23 100.582 1325.12 100.646L1324.77 100.823C1324.65 100.882 1324.53 100.941 1324.41 100.941C1324.23 101 1324.18 101 1324 101C1323.82 101 1323.71 100.941 1323.59 100.941C1323.47 100.881 1323.35 100.881 1323.24 100.823C1323.12 100.763 1323 100.705 1322.88 100.646C1322.77 100.586 1322.71 100.528 1322.59 100.41C1322.5 100.323 1322.42 100.224 1322.35 100.114L1322.18 99.76C1322.12 99.642 1322.06 99.524 1322.06 99.406C1322 99.229 1322 99.11 1322 98.993C1322 98.815 1322.06 98.697 1322.06 98.579C1322.12 98.461 1322.12 98.343 1322.18 98.225L1322.35 97.871C1322.41 97.753 1322.47 97.694 1322.59 97.576C1322.65 97.516 1322.77 97.399 1322.88 97.339L1323.24 97.162C1323.35 97.103 1323.47 97.044 1323.59 97.044C1323.82 96.985 1324.12 96.985 1324.35 97.044C1324.47 97.104 1324.59 97.104 1324.71 97.162L1325.06 97.339C1325.18 97.399 1325.23 97.458 1325.35 97.576C1325.41 97.635 1325.53 97.753 1325.59 97.871L1325.77 98.225ZM1325.77 117.225C1325.82 117.343 1325.82 117.521 1325.94 117.58C1326 117.756 1326 117.875 1326 117.993C1326 118.17 1325.94 118.288 1325.94 118.406C1325.88 118.524 1325.88 118.642 1325.82 118.761L1325.65 119.114C1325.59 119.232 1325.53 119.292 1325.41 119.41C1325.35 119.47 1325.24 119.587 1325.12 119.646L1324.77 119.823C1324.65 119.883 1324.53 119.942 1324.41 119.942C1324.23 120 1324.18 120 1324 120C1323.82 120 1323.71 119.942 1323.59 119.942C1323.47 119.882 1323.35 119.882 1323.24 119.822L1322.88 119.646C1322.77 119.587 1322.71 119.528 1322.59 119.41C1322.5 119.324 1322.42 119.224 1322.35 119.114L1322.18 118.761C1322.12 118.642 1322.06 118.524 1322.06 118.406C1322 118.23 1322 118.111 1322 117.993C1322 117.816 1322.06 117.698 1322.06 117.58C1322.12 117.461 1322.12 117.343 1322.18 117.226L1322.35 116.871C1322.41 116.753 1322.47 116.694 1322.59 116.576C1322.65 116.517 1322.77 116.399 1322.88 116.34L1323.24 116.162C1323.35 116.104 1323.47 116.045 1323.59 116.045C1323.82 115.985 1324.12 115.985 1324.35 116.045C1324.47 116.104 1324.59 116.104 1324.71 116.162L1325.06 116.34C1325.18 116.399 1325.23 116.457 1325.35 116.576C1325.41 116.636 1325.53 116.753 1325.59 116.871C1325.65 116.989 1325.71 117.107 1325.77 117.226V117.225ZM1506.12 59.76C1506.12 59.642 1506.06 59.524 1506.06 59.406C1506 59.229 1506 59.111 1506 58.993C1506 58.816 1506.06 58.697 1506.06 58.579C1506.06 58.461 1506.12 58.343 1506.18 58.225C1506.24 58.107 1506.3 57.989 1506.36 57.871C1506.42 57.753 1506.48 57.694 1506.6 57.576C1506.66 57.516 1506.78 57.399 1506.9 57.339L1507.25 57.162C1507.37 57.103 1507.49 57.044 1507.61 57.044C1507.85 56.985 1508.15 56.985 1508.39 57.044C1508.51 57.104 1508.63 57.104 1508.75 57.162L1509.1 57.339C1509.22 57.399 1509.28 57.458 1509.4 57.576C1509.46 57.635 1509.58 57.753 1509.64 57.871L1509.82 58.225C1509.88 58.343 1509.94 58.461 1509.94 58.579C1510 58.756 1510 58.875 1510 58.993C1510 59.17 1509.94 59.288 1509.94 59.406C1509.88 59.524 1509.88 59.642 1509.82 59.76L1509.64 60.114C1509.58 60.232 1509.52 60.292 1509.4 60.41C1509.34 60.469 1509.22 60.587 1509.1 60.646L1508.75 60.823C1508.63 60.882 1508.51 60.941 1508.39 60.941C1508.21 61 1508.09 61 1507.97 61C1507.79 61 1507.67 60.941 1507.55 60.941C1507.43 60.881 1507.31 60.881 1507.19 60.823L1506.84 60.646C1506.72 60.586 1506.66 60.528 1506.54 60.41C1506.48 60.35 1506.36 60.232 1506.3 60.114L1506.12 59.76ZM1509.76 78.225C1509.76 78.343 1509.83 78.461 1509.94 78.579C1510 78.756 1510 78.875 1510 78.993C1510 79.17 1509.94 79.288 1509.94 79.406C1509.88 79.524 1509.88 79.642 1509.82 79.76L1509.65 80.114C1509.59 80.232 1509.53 80.292 1509.41 80.41C1509.33 80.503 1509.23 80.5825 1509.12 80.646L1508.76 80.823C1508.65 80.882 1508.53 80.941 1508.41 80.941C1508.24 81 1508.12 81 1508 81C1507.82 81 1507.71 80.941 1507.59 80.941C1507.47 80.881 1507.35 80.881 1507.24 80.823C1507.12 80.763 1507 80.705 1506.88 80.646C1506.76 80.586 1506.71 80.528 1506.59 80.41C1506.53 80.35 1506.41 80.232 1506.35 80.114L1506.18 79.76C1506.12 79.642 1506.06 79.524 1506.06 79.406C1506 79.229 1506 79.111 1506 78.993C1506 78.815 1506.06 78.697 1506.06 78.579C1506.06 78.461 1506.12 78.343 1506.18 78.225L1506.35 77.871C1506.41 77.753 1506.47 77.694 1506.59 77.576C1506.65 77.516 1506.76 77.399 1506.88 77.339L1507.24 77.162C1507.35 77.103 1507.47 77.044 1507.59 77.044C1507.82 76.985 1508.12 76.985 1508.35 77.044C1508.47 77.104 1508.59 77.104 1508.71 77.162C1508.82 77.222 1508.94 77.28 1509.06 77.339C1509.18 77.399 1509.24 77.458 1509.35 77.576C1509.41 77.635 1509.53 77.753 1509.59 77.871L1509.76 78.225ZM1509.76 98.225C1509.76 98.343 1509.83 98.461 1509.94 98.579C1510 98.756 1510 98.875 1510 98.993C1510 99.17 1509.94 99.288 1509.94 99.406C1509.88 99.524 1509.88 99.642 1509.82 99.76L1509.65 100.114C1509.59 100.232 1509.53 100.292 1509.41 100.41C1509.33 100.503 1509.23 100.583 1509.12 100.646L1508.76 100.823C1508.65 100.882 1508.53 100.941 1508.41 100.941C1508.24 101 1508.12 101 1508 101C1507.82 101 1507.71 100.941 1507.59 100.941C1507.47 100.881 1507.35 100.881 1507.24 100.823C1507.12 100.763 1507 100.705 1506.88 100.646C1506.76 100.586 1506.71 100.528 1506.59 100.41C1506.53 100.35 1506.41 100.232 1506.35 100.114L1506.18 99.76C1506.12 99.642 1506.06 99.524 1506.06 99.406C1506 99.229 1506 99.111 1506 98.993C1506 98.815 1506.06 98.697 1506.06 98.579C1506.06 98.461 1506.12 98.343 1506.18 98.225L1506.35 97.871C1506.41 97.753 1506.47 97.694 1506.59 97.576C1506.65 97.516 1506.76 97.399 1506.88 97.339L1507.24 97.162C1507.35 97.103 1507.47 97.044 1507.59 97.044C1507.82 96.985 1508.12 96.985 1508.35 97.044C1508.47 97.104 1508.59 97.104 1508.71 97.162C1508.82 97.222 1508.94 97.28 1509.06 97.339C1509.18 97.399 1509.24 97.458 1509.35 97.576C1509.41 97.635 1509.53 97.753 1509.59 97.871L1509.76 98.225ZM1509.76 117.225C1509.76 117.343 1509.83 117.521 1509.94 117.58C1510 117.756 1510 117.875 1510 117.993C1510 118.17 1509.94 118.288 1509.94 118.406C1509.88 118.524 1509.88 118.642 1509.82 118.761L1509.65 119.114C1509.59 119.232 1509.53 119.292 1509.41 119.41C1509.35 119.47 1509.24 119.587 1509.12 119.646L1508.76 119.823C1508.65 119.883 1508.53 119.942 1508.41 119.942C1508.28 119.986 1508.14 120.006 1508 120C1507.82 120 1507.71 119.942 1507.59 119.942C1507.47 119.882 1507.35 119.882 1507.24 119.822L1506.88 119.646C1506.76 119.587 1506.71 119.528 1506.59 119.41C1506.49 119.324 1506.42 119.224 1506.35 119.114L1506.18 118.761C1506.12 118.642 1506.06 118.524 1506.06 118.406C1506 118.229 1506 118.111 1506 117.993C1506 117.816 1506.06 117.698 1506.06 117.58C1506.06 117.461 1506.12 117.343 1506.18 117.226L1506.35 116.871C1506.41 116.753 1506.47 116.694 1506.59 116.576C1506.65 116.517 1506.76 116.399 1506.88 116.34L1507.24 116.162C1507.35 116.104 1507.47 116.045 1507.59 116.045C1507.82 115.985 1508.12 115.985 1508.35 116.045C1508.47 116.104 1508.59 116.104 1508.71 116.162L1509.06 116.34C1509.18 116.399 1509.24 116.457 1509.35 116.576C1509.41 116.636 1509.53 116.753 1509.59 116.871L1509.76 117.226V117.225ZM1385 175C1385.53 175 1386.04 175.211 1386.41 175.586C1386.79 175.961 1387 176.47 1387 177C1387 177.53 1386.79 178.039 1386.41 178.414C1386.04 178.789 1385.53 179 1385 179C1384.47 179 1383.96 178.789 1383.59 178.414C1383.21 178.039 1383 177.53 1383 177C1383 176.47 1383.21 175.961 1383.59 175.586C1383.96 175.211 1384.47 175 1385 175ZM1407.76 176.225C1407.82 176.343 1407.82 176.461 1407.94 176.58C1408 176.756 1408 176.875 1408 176.993C1408 177.17 1407.94 177.288 1407.94 177.406C1407.88 177.524 1407.88 177.642 1407.82 177.76L1407.65 178.114C1407.59 178.232 1407.53 178.292 1407.41 178.41C1407.33 178.503 1407.23 178.582 1407.12 178.646L1406.76 178.822C1406.65 178.882 1406.53 178.941 1406.41 178.941C1406.24 179 1406.12 179 1406 179C1405.82 179 1405.71 178.941 1405.59 178.941C1405.47 178.881 1405.35 178.881 1405.24 178.822L1404.88 178.646C1404.77 178.586 1404.71 178.527 1404.59 178.41C1404.5 178.323 1404.42 178.224 1404.35 178.114L1404.18 177.76C1404.12 177.642 1404.06 177.524 1404.06 177.406C1404 177.229 1404 177.111 1404 176.993C1404 176.816 1404.06 176.698 1404.06 176.58C1404.06 176.46 1404.12 176.343 1404.18 176.225L1404.35 175.871C1404.41 175.753 1404.47 175.694 1404.59 175.575C1404.65 175.517 1404.77 175.399 1404.88 175.34L1405.24 175.163C1405.35 175.103 1405.47 175.045 1405.59 175.045C1405.82 174.985 1406.12 174.985 1406.35 175.045C1406.47 175.104 1406.59 175.104 1406.71 175.163L1407.06 175.34C1407.18 175.399 1407.23 175.458 1407.35 175.575C1407.41 175.635 1407.53 175.753 1407.59 175.871L1407.76 176.225ZM1427.76 176.225C1427.82 176.343 1427.83 176.461 1427.94 176.58C1428 176.756 1428 176.875 1428 176.993C1428 177.17 1427.94 177.288 1427.94 177.406C1427.88 177.524 1427.88 177.642 1427.82 177.76C1427.76 177.878 1427.71 177.996 1427.65 178.114C1427.59 178.232 1427.53 178.292 1427.41 178.41C1427.33 178.503 1427.23 178.583 1427.12 178.646L1426.76 178.822C1426.65 178.882 1426.53 178.941 1426.41 178.941C1426.24 179 1426.12 179 1426 179C1425.82 179 1425.71 178.941 1425.59 178.941C1425.47 178.881 1425.35 178.881 1425.24 178.822L1424.88 178.646C1424.76 178.586 1424.71 178.527 1424.59 178.41C1424.49 178.323 1424.42 178.224 1424.35 178.114L1424.18 177.76C1424.12 177.642 1424.06 177.524 1424.06 177.406C1424 177.229 1424 177.111 1424 176.993C1424 176.816 1424.06 176.698 1424.06 176.58C1424.12 176.46 1424.12 176.343 1424.18 176.225L1424.35 175.871C1424.41 175.753 1424.47 175.694 1424.59 175.575C1424.65 175.517 1424.76 175.399 1424.88 175.34L1425.24 175.163C1425.35 175.103 1425.47 175.045 1425.59 175.045C1425.82 174.985 1426.12 174.985 1426.35 175.045C1426.47 175.104 1426.59 175.104 1426.71 175.163C1426.82 175.222 1426.94 175.28 1427.06 175.34C1427.18 175.399 1427.24 175.458 1427.35 175.575C1427.41 175.635 1427.53 175.753 1427.59 175.871L1427.76 176.225ZM1447 175C1447.53 175 1448.04 175.211 1448.41 175.586C1448.79 175.961 1449 176.47 1449 177C1449 177.53 1448.79 178.039 1448.41 178.414C1448.04 178.789 1447.53 179 1447 179C1446.47 179 1445.96 178.789 1445.59 178.414C1445.21 178.039 1445 177.53 1445 177C1445 176.47 1445.21 175.961 1445.59 175.586C1445.96 175.211 1446.47 175 1447 175ZM1365 39C1365.53 39 1366.04 39.2107 1366.41 39.5858C1366.79 39.9609 1367 40.4696 1367 41C1367 41.5304 1366.79 42.0391 1366.41 42.4142C1366.04 42.7893 1365.53 43 1365 43C1364.47 43 1363.96 42.7893 1363.59 42.4142C1363.21 42.0391 1363 41.5304 1363 41C1363 40.4696 1363.21 39.9609 1363.59 39.5858C1363.96 39.2107 1364.47 39 1365 39ZM1344 39C1344.53 39 1345.04 39.2107 1345.41 39.5858C1345.79 39.9609 1346 40.4696 1346 41C1346 41.5304 1345.79 42.0391 1345.41 42.4142C1345.04 42.7893 1344.53 43 1344 43C1343.47 43 1342.96 42.7893 1342.59 42.4142C1342.21 42.0391 1342 41.5304 1342 41C1342 40.4696 1342.21 39.9609 1342.59 39.5858C1342.96 39.2107 1343.47 39 1344 39ZM1385 39C1385.53 39 1386.04 39.2107 1386.41 39.5858C1386.79 39.9609 1387 40.4696 1387 41C1387 41.5304 1386.79 42.0391 1386.41 42.4142C1386.04 42.7893 1385.53 43 1385 43C1384.47 43 1383.96 42.7893 1383.59 42.4142C1383.21 42.0391 1383 41.5304 1383 41C1383 40.4696 1383.21 39.9609 1383.59 39.5858C1383.96 39.2107 1384.47 39 1385 39ZM1407.76 40.225C1407.82 40.343 1407.82 40.461 1407.94 40.579C1408 40.756 1408 40.816 1408 40.993C1408 41.17 1407.94 41.288 1407.94 41.406C1407.88 41.524 1407.88 41.642 1407.82 41.76L1407.65 42.114C1407.59 42.232 1407.53 42.292 1407.41 42.41C1407.33 42.5027 1407.23 42.5822 1407.12 42.646L1406.76 42.823C1406.65 42.882 1406.53 42.941 1406.41 42.941C1406.24 43 1406.12 43 1406 43C1405.82 43 1405.71 42.941 1405.59 42.941C1405.47 42.881 1405.35 42.881 1405.24 42.823C1405.12 42.763 1405 42.705 1404.88 42.646C1404.77 42.586 1404.71 42.528 1404.59 42.41C1404.5 42.3234 1404.42 42.2237 1404.35 42.114L1404.18 41.76C1404.12 41.642 1404.06 41.524 1404.06 41.406C1404 41.229 1404 41.17 1404 40.993C1404 40.816 1404.06 40.697 1404.06 40.579C1404.06 40.461 1404.12 40.343 1404.18 40.225L1404.35 39.871C1404.41 39.753 1404.47 39.694 1404.59 39.576C1404.65 39.516 1404.77 39.399 1404.88 39.339L1405.24 39.162C1405.35 39.103 1405.47 39.044 1405.59 39.044C1405.82 38.985 1406.12 38.985 1406.35 39.044C1406.47 39.104 1406.59 39.104 1406.71 39.162L1407.06 39.339C1407.18 39.399 1407.23 39.458 1407.35 39.576C1407.41 39.635 1407.53 39.753 1407.59 39.871L1407.76 40.225ZM1385 57C1385.53 57 1386.04 57.2107 1386.41 57.5858C1386.79 57.9609 1387 58.4696 1387 59C1387 59.5304 1386.79 60.0391 1386.41 60.4142C1386.04 60.7893 1385.53 61 1385 61C1384.47 61 1383.96 60.7893 1383.59 60.4142C1383.21 60.0391 1383 59.5304 1383 59C1383 58.4696 1383.21 57.9609 1383.59 57.5858C1383.96 57.2107 1384.47 57 1385 57ZM1344 57C1344.53 57 1345.04 57.2107 1345.41 57.5858C1345.79 57.9609 1346 58.4696 1346 59C1346 59.5304 1345.79 60.0391 1345.41 60.4142C1345.04 60.7893 1344.53 61 1344 61C1343.47 61 1342.96 60.7893 1342.59 60.4142C1342.21 60.0391 1342 59.5304 1342 59C1342 58.4696 1342.21 57.9609 1342.59 57.5858C1342.96 57.2107 1343.47 57 1344 57ZM1365 57C1365.53 57 1366.04 57.2107 1366.41 57.5858C1366.79 57.9609 1367 58.4696 1367 59C1367 59.5304 1366.79 60.0391 1366.41 60.4142C1366.04 60.7893 1365.53 61 1365 61C1364.47 61 1363.96 60.7893 1363.59 60.4142C1363.21 60.0391 1363 59.5304 1363 59C1363 58.4696 1363.21 57.9609 1363.59 57.5858C1363.96 57.2107 1364.47 57 1365 57ZM1407.76 58.225C1407.82 58.343 1407.82 58.461 1407.94 58.579C1408 58.756 1408 58.875 1408 58.993C1408 59.17 1407.94 59.288 1407.94 59.406C1407.88 59.524 1407.88 59.642 1407.82 59.76L1407.65 60.114C1407.59 60.232 1407.53 60.292 1407.41 60.41C1407.33 60.5027 1407.23 60.5822 1407.12 60.646L1406.76 60.823C1406.65 60.882 1406.53 60.941 1406.41 60.941C1406.24 61 1406.12 61 1406 61C1405.82 61 1405.71 60.941 1405.59 60.941C1405.47 60.881 1405.35 60.881 1405.24 60.823C1405.12 60.763 1405 60.705 1404.88 60.646C1404.77 60.586 1404.71 60.528 1404.59 60.41C1404.5 60.3234 1404.42 60.2237 1404.35 60.114L1404.18 59.76C1404.12 59.642 1404.06 59.524 1404.06 59.406C1404 59.229 1404 59.11 1404 58.993C1404 58.816 1404.06 58.697 1404.06 58.579C1404.06 58.461 1404.12 58.343 1404.18 58.225L1404.35 57.871C1404.41 57.753 1404.47 57.694 1404.59 57.576C1404.65 57.516 1404.77 57.399 1404.88 57.339L1405.24 57.162C1405.35 57.103 1405.47 57.044 1405.59 57.044C1405.82 56.985 1406.12 56.985 1406.35 57.044C1406.47 57.104 1406.59 57.104 1406.71 57.162L1407.06 57.339C1407.18 57.399 1407.23 57.458 1407.35 57.576C1407.41 57.635 1407.53 57.753 1407.59 57.871L1407.76 58.225ZM1385 77C1385.53 77 1386.04 77.2107 1386.41 77.5858C1386.79 77.9609 1387 78.4696 1387 79C1387 79.5304 1386.79 80.0391 1386.41 80.4142C1386.04 80.7893 1385.53 81 1385 81C1384.47 81 1383.96 80.7893 1383.59 80.4142C1383.21 80.0391 1383 79.5304 1383 79C1383 78.4696 1383.21 77.9609 1383.59 77.5858C1383.96 77.2107 1384.47 77 1385 77ZM1365 77C1365.53 77 1366.04 77.2107 1366.41 77.5858C1366.79 77.9609 1367 78.4696 1367 79C1367 79.5304 1366.79 80.0391 1366.41 80.4142C1366.04 80.7893 1365.53 81 1365 81C1364.47 81 1363.96 80.7893 1363.59 80.4142C1363.21 80.0391 1363 79.5304 1363 79C1363 78.4696 1363.21 77.9609 1363.59 77.5858C1363.96 77.2107 1364.47 77 1365 77ZM1344 77C1344.53 77 1345.04 77.2107 1345.41 77.5858C1345.79 77.9609 1346 78.4696 1346 79C1346 79.5304 1345.79 80.0391 1345.41 80.4142C1345.04 80.7893 1344.53 81 1344 81C1343.47 81 1342.96 80.7893 1342.59 80.4142C1342.21 80.0391 1342 79.5304 1342 79C1342 78.4696 1342.21 77.9609 1342.59 77.5858C1342.96 77.2107 1343.47 77 1344 77ZM1407.76 78.225C1407.82 78.343 1407.82 78.461 1407.94 78.579C1408 78.756 1408 78.875 1408 78.993C1408 79.17 1407.94 79.288 1407.94 79.406C1407.88 79.524 1407.88 79.642 1407.82 79.76L1407.65 80.114C1407.59 80.232 1407.53 80.292 1407.41 80.41C1407.33 80.5027 1407.23 80.5822 1407.12 80.646L1406.76 80.823C1406.65 80.882 1406.53 80.941 1406.41 80.941C1406.24 81 1406.12 81 1406 81C1405.82 81 1405.71 80.941 1405.59 80.941C1405.47 80.881 1405.35 80.881 1405.24 80.823C1405.12 80.763 1405 80.705 1404.88 80.646C1404.77 80.586 1404.71 80.528 1404.59 80.41C1404.5 80.3234 1404.42 80.2237 1404.35 80.114L1404.18 79.76C1404.12 79.642 1404.06 79.524 1404.06 79.406C1404 79.229 1404 79.11 1404 78.993C1404 78.815 1404.06 78.697 1404.06 78.579C1404.06 78.461 1404.12 78.343 1404.18 78.225L1404.35 77.871C1404.41 77.753 1404.47 77.694 1404.59 77.576C1404.65 77.516 1404.77 77.399 1404.88 77.339L1405.24 77.162C1405.35 77.103 1405.47 77.044 1405.59 77.044C1405.82 76.985 1406.12 76.985 1406.35 77.044C1406.47 77.104 1406.59 77.104 1406.71 77.162L1407.06 77.339C1407.18 77.399 1407.23 77.458 1407.35 77.576C1407.41 77.635 1407.53 77.753 1407.59 77.871L1407.76 78.225ZM1427.76 40.225C1427.82 40.343 1427.83 40.461 1427.94 40.579C1428 40.756 1428 40.816 1428 40.993C1428 41.17 1427.94 41.288 1427.94 41.406C1427.88 41.524 1427.88 41.642 1427.82 41.76C1427.76 41.878 1427.71 41.996 1427.65 42.114C1427.59 42.232 1427.53 42.292 1427.41 42.41C1427.33 42.503 1427.23 42.5825 1427.12 42.646L1426.76 42.823C1426.65 42.882 1426.53 42.941 1426.41 42.941C1426.24 43 1426.12 43 1426 43C1425.82 43 1425.71 42.941 1425.59 42.941C1425.47 42.881 1425.35 42.881 1425.24 42.823L1424.88 42.646C1424.76 42.586 1424.71 42.528 1424.59 42.41C1424.49 42.3235 1424.42 42.2238 1424.35 42.114L1424.18 41.76C1424.12 41.642 1424.06 41.524 1424.06 41.406C1424 41.229 1424 41.17 1424 40.993C1424 40.816 1424.06 40.697 1424.06 40.579C1424.12 40.461 1424.12 40.343 1424.18 40.225L1424.35 39.871C1424.41 39.753 1424.47 39.694 1424.59 39.576C1424.67 39.4827 1424.77 39.4028 1424.88 39.339L1425.24 39.162C1425.35 39.103 1425.47 39.044 1425.59 39.044C1425.82 38.985 1426.12 38.985 1426.35 39.044C1426.47 39.104 1426.59 39.104 1426.71 39.162L1427.06 39.339C1427.18 39.399 1427.24 39.458 1427.35 39.576C1427.41 39.635 1427.53 39.753 1427.59 39.871L1427.76 40.225ZM1447 39C1447.53 39 1448.04 39.2107 1448.41 39.5858C1448.79 39.9609 1449 40.4696 1449 41C1449 41.5304 1448.79 42.0391 1448.41 42.4142C1448.04 42.7893 1447.53 43 1447 43C1446.47 43 1445.96 42.7893 1445.59 42.4142C1445.21 42.0391 1445 41.5304 1445 41C1445 40.4696 1445.21 39.9609 1445.59 39.5858C1445.96 39.2107 1446.47 39 1447 39ZM1488 39C1489.12 39 1490 39.882 1490 41C1490 42.118 1489.12 43 1488 43C1486.88 43 1486 42.118 1486 41C1486 39.882 1486.88 39 1488 39ZM1467 39C1467.53 39 1468.04 39.2107 1468.41 39.5858C1468.79 39.9609 1469 40.4696 1469 41C1469 41.5304 1468.79 42.0391 1468.41 42.4142C1468.04 42.7893 1467.53 43 1467 43C1466.47 43 1465.96 42.7893 1465.59 42.4142C1465.21 42.0391 1465 41.5304 1465 41C1465 40.4696 1465.21 39.9609 1465.59 39.5858C1465.96 39.2107 1466.47 39 1467 39ZM1427.76 58.225C1427.82 58.343 1427.83 58.461 1427.94 58.579C1428 58.756 1428 58.875 1428 58.993C1428 59.17 1427.94 59.288 1427.94 59.406C1427.88 59.524 1427.88 59.642 1427.82 59.76C1427.76 59.878 1427.71 59.996 1427.65 60.114C1427.59 60.232 1427.53 60.292 1427.41 60.41C1427.33 60.503 1427.23 60.5825 1427.12 60.646L1426.76 60.823C1426.65 60.882 1426.53 60.941 1426.41 60.941C1426.24 61 1426.12 61 1426 61C1425.82 61 1425.71 60.941 1425.59 60.941C1425.47 60.881 1425.35 60.881 1425.24 60.823L1424.88 60.646C1424.76 60.586 1424.71 60.528 1424.59 60.41C1424.49 60.3235 1424.42 60.2238 1424.35 60.114L1424.18 59.76C1424.12 59.642 1424.06 59.524 1424.06 59.406C1424 59.229 1424 59.111 1424 58.993C1424 58.816 1424.06 58.697 1424.06 58.579C1424.12 58.461 1424.12 58.343 1424.18 58.225L1424.35 57.871C1424.41 57.753 1424.47 57.694 1424.59 57.576C1424.67 57.4827 1424.77 57.4028 1424.88 57.339L1425.24 57.162C1425.35 57.103 1425.47 57.044 1425.59 57.044C1425.82 56.985 1426.12 56.985 1426.35 57.044C1426.47 57.104 1426.59 57.104 1426.71 57.162L1427.06 57.339C1427.18 57.399 1427.24 57.458 1427.35 57.576C1427.41 57.635 1427.53 57.753 1427.59 57.871L1427.76 58.225ZM1488 57C1489.12 57 1490 57.882 1490 59C1490 60.118 1489.12 61 1488 61C1486.88 61 1486 60.118 1486 59C1486 57.882 1486.88 57 1488 57ZM1447 57C1447.53 57 1448.04 57.2107 1448.41 57.5858C1448.79 57.9609 1449 58.4696 1449 59C1449 59.5304 1448.79 60.0391 1448.41 60.4142C1448.04 60.7893 1447.53 61 1447 61C1446.47 61 1445.96 60.7893 1445.59 60.4142C1445.21 60.0391 1445 59.5304 1445 59C1445 58.4696 1445.21 57.9609 1445.59 57.5858C1445.96 57.2107 1446.47 57 1447 57ZM1467 57C1467.53 57 1468.04 57.2107 1468.41 57.5858C1468.79 57.9609 1469 58.4696 1469 59C1469 59.5304 1468.79 60.0391 1468.41 60.4142C1468.04 60.7893 1467.53 61 1467 61C1466.47 61 1465.96 60.7893 1465.59 60.4142C1465.21 60.0391 1465 59.5304 1465 59C1465 58.4696 1465.21 57.9609 1465.59 57.5858C1465.96 57.2107 1466.47 57 1467 57ZM1427.76 78.225C1427.82 78.343 1427.83 78.461 1427.94 78.579C1428 78.756 1428 78.875 1428 78.993C1428 79.17 1427.94 79.288 1427.94 79.406C1427.88 79.524 1427.88 79.642 1427.82 79.76C1427.76 79.878 1427.71 79.996 1427.65 80.114C1427.59 80.232 1427.53 80.292 1427.41 80.41C1427.33 80.503 1427.23 80.5825 1427.12 80.646L1426.76 80.823C1426.65 80.882 1426.53 80.941 1426.41 80.941C1426.24 81 1426.12 81 1426 81C1425.82 81 1425.71 80.941 1425.59 80.941C1425.47 80.881 1425.35 80.881 1425.24 80.823L1424.88 80.646C1424.76 80.586 1424.71 80.528 1424.59 80.41C1424.49 80.3235 1424.42 80.2237 1424.35 80.114L1424.18 79.76C1424.12 79.642 1424.06 79.524 1424.06 79.406C1424 79.229 1424 79.111 1424 78.993C1424 78.815 1424.06 78.697 1424.06 78.579C1424.12 78.461 1424.12 78.343 1424.18 78.225L1424.35 77.871C1424.41 77.753 1424.47 77.694 1424.59 77.576C1424.67 77.4827 1424.77 77.4028 1424.88 77.339L1425.24 77.162C1425.35 77.103 1425.47 77.044 1425.59 77.044C1425.82 76.985 1426.12 76.985 1426.35 77.044C1426.47 77.104 1426.59 77.104 1426.71 77.162L1427.06 77.339C1427.18 77.399 1427.24 77.458 1427.35 77.576C1427.41 77.635 1427.53 77.753 1427.59 77.871L1427.76 78.225ZM1447 77C1447.53 77 1448.04 77.2107 1448.41 77.5858C1448.79 77.9609 1449 78.4696 1449 79C1449 79.5304 1448.79 80.0391 1448.41 80.4142C1448.04 80.7893 1447.53 81 1447 81C1446.47 81 1445.96 80.7893 1445.59 80.4142C1445.21 80.0391 1445 79.5304 1445 79C1445 78.4696 1445.21 77.9609 1445.59 77.5858C1445.96 77.2107 1446.47 77 1447 77ZM1467 77C1467.53 77 1468.04 77.2107 1468.41 77.5858C1468.79 77.9609 1469 78.4696 1469 79C1469 79.5304 1468.79 80.0391 1468.41 80.4142C1468.04 80.7893 1467.53 81 1467 81C1466.47 81 1465.96 80.7893 1465.59 80.4142C1465.21 80.0391 1465 79.5304 1465 79C1465 78.4696 1465.21 77.9609 1465.59 77.5858C1465.96 77.2107 1466.47 77 1467 77ZM1488 77C1489.12 77 1490 77.882 1490 79C1490 80.118 1489.12 81 1488 81C1486.88 81 1486 80.118 1486 79C1486 77.882 1486.88 77 1488 77ZM1344 97C1345.12 97 1346 97.882 1346 99C1346 100.118 1345.12 101 1344 101C1342.88 101 1342 100.118 1342 99C1342 97.882 1342.88 97 1344 97ZM1365 97C1366.06 97 1366.94 97.882 1367 99C1367 100.118 1366.12 101 1365 101C1363.88 101 1363 100.118 1363 99C1363 97.882 1363.88 97 1365 97ZM1385 97C1386.12 97 1387 97.882 1387 99C1387 100.118 1386.12 101 1385 101C1383.88 101 1383 100.118 1383 99C1383 97.882 1383.88 97 1385 97ZM1407.76 98.225C1407.82 98.343 1407.82 98.461 1407.94 98.579C1408 98.756 1408 98.875 1408 98.993C1408 99.17 1407.94 99.288 1407.94 99.406C1407.88 99.524 1407.88 99.642 1407.82 99.76L1407.65 100.114C1407.59 100.232 1407.53 100.292 1407.41 100.41C1407.33 100.503 1407.23 100.582 1407.12 100.646L1406.76 100.823C1406.65 100.882 1406.53 100.941 1406.41 100.941C1406.24 101 1406.12 101 1406 101C1405.82 101 1405.71 100.941 1405.59 100.941C1405.47 100.881 1405.35 100.881 1405.24 100.823C1405.12 100.763 1405 100.705 1404.88 100.646C1404.77 100.586 1404.71 100.528 1404.59 100.41C1404.5 100.323 1404.42 100.224 1404.35 100.114L1404.18 99.76C1404.12 99.642 1404.06 99.524 1404.06 99.406C1404 99.229 1404 99.11 1404 98.993C1404 98.815 1404.06 98.697 1404.06 98.579C1404.06 98.461 1404.12 98.343 1404.18 98.225L1404.35 97.871C1404.41 97.753 1404.47 97.694 1404.59 97.576C1404.65 97.516 1404.77 97.399 1404.88 97.339L1405.24 97.162C1405.35 97.103 1405.47 97.044 1405.59 97.044C1405.82 96.985 1406.12 96.985 1406.35 97.044C1406.47 97.104 1406.59 97.104 1406.71 97.162L1407.06 97.339C1407.18 97.399 1407.23 97.458 1407.35 97.576C1407.41 97.635 1407.53 97.753 1407.59 97.871L1407.76 98.225ZM1344 116C1344.53 116 1345.04 116.211 1345.41 116.586C1345.79 116.961 1346 117.47 1346 118C1346 118.53 1345.79 119.039 1345.41 119.414C1345.04 119.789 1344.53 120 1344 120C1343.47 120 1342.96 119.789 1342.59 119.414C1342.21 119.039 1342 118.53 1342 118C1342 117.47 1342.21 116.961 1342.59 116.586C1342.96 116.211 1343.47 116 1344 116ZM1385 116C1385.53 116 1386.04 116.211 1386.41 116.586C1386.79 116.961 1387 117.47 1387 118C1387 118.53 1386.79 119.039 1386.41 119.414C1386.04 119.789 1385.53 120 1385 120C1384.47 120 1383.96 119.789 1383.59 119.414C1383.21 119.039 1383 118.53 1383 118C1383 117.47 1383.21 116.961 1383.59 116.586C1383.96 116.211 1384.47 116 1385 116ZM1365 116C1365.53 116 1366.04 116.211 1366.41 116.586C1366.79 116.961 1367 117.47 1367 118C1367 118.53 1366.79 119.039 1366.41 119.414C1366.04 119.789 1365.53 120 1365 120C1364.47 120 1363.96 119.789 1363.59 119.414C1363.21 119.039 1363 118.53 1363 118C1363 117.47 1363.21 116.961 1363.59 116.586C1363.96 116.211 1364.47 116 1365 116ZM1407.76 117.226C1407.82 117.343 1407.82 117.521 1407.94 117.58C1408 117.756 1408 117.875 1408 117.993C1408 118.17 1407.94 118.288 1407.94 118.406C1407.88 118.524 1407.88 118.642 1407.82 118.761L1407.65 119.114C1407.59 119.232 1407.53 119.292 1407.41 119.41C1407.35 119.47 1407.23 119.587 1407.12 119.646L1406.76 119.823C1406.65 119.883 1406.53 119.942 1406.41 119.942C1406.24 120 1406.12 120 1406 120C1405.82 120 1405.71 119.942 1405.59 119.942C1405.47 119.882 1405.35 119.882 1405.24 119.822L1404.88 119.646C1404.77 119.587 1404.71 119.528 1404.59 119.41C1404.5 119.324 1404.42 119.224 1404.35 119.114L1404.18 118.761C1404.12 118.642 1404.06 118.524 1404.06 118.406C1404 118.229 1404 118.111 1404 117.993C1404 117.816 1404.06 117.698 1404.06 117.58C1404.06 117.461 1404.12 117.343 1404.18 117.226L1404.35 116.871C1404.41 116.753 1404.47 116.694 1404.59 116.576C1404.65 116.517 1404.77 116.399 1404.88 116.34L1405.24 116.162C1405.35 116.104 1405.47 116.045 1405.59 116.045C1405.82 115.985 1406.12 115.985 1406.35 116.045C1406.47 116.104 1406.59 116.104 1406.71 116.162L1407.06 116.34C1407.18 116.399 1407.23 116.457 1407.35 116.576C1407.41 116.636 1407.53 116.753 1407.59 116.871C1407.65 116.989 1407.71 117.107 1407.76 117.226ZM1385 135C1385.53 135 1386.04 135.211 1386.41 135.586C1386.79 135.961 1387 136.47 1387 137C1387 137.53 1386.79 138.039 1386.41 138.414C1386.04 138.789 1385.53 139 1385 139C1384.47 139 1383.96 138.789 1383.59 138.414C1383.21 138.039 1383 137.53 1383 137C1383 136.47 1383.21 135.961 1383.59 135.586C1383.96 135.211 1384.47 135 1385 135ZM1344 135C1344.53 135 1345.04 135.211 1345.41 135.586C1345.79 135.961 1346 136.47 1346 137C1346 137.53 1345.79 138.039 1345.41 138.414C1345.04 138.789 1344.53 139 1344 139C1343.47 139 1342.96 138.789 1342.59 138.414C1342.21 138.039 1342 137.53 1342 137C1342 136.47 1342.21 135.961 1342.59 135.586C1342.96 135.211 1343.47 135 1344 135ZM1365 135C1365.53 135 1366.04 135.211 1366.41 135.586C1366.79 135.961 1367 136.47 1367 137C1367 137.53 1366.79 138.039 1366.41 138.414C1366.04 138.789 1365.53 139 1365 139C1364.47 139 1363.96 138.789 1363.59 138.414C1363.21 138.039 1363 137.53 1363 137C1363 136.47 1363.21 135.961 1363.59 135.586C1363.96 135.211 1364.47 135 1365 135ZM1407.76 136.226C1407.82 136.343 1407.82 136.461 1407.94 136.58C1408 136.756 1408 136.875 1408 136.993C1408 137.17 1407.94 137.288 1407.94 137.406C1407.88 137.524 1407.88 137.642 1407.82 137.761L1407.65 138.114C1407.59 138.232 1407.53 138.292 1407.41 138.41C1407.35 138.47 1407.23 138.587 1407.12 138.646L1406.76 138.823C1406.65 138.883 1406.53 138.942 1406.41 138.942C1406.24 139 1406.12 139 1406 139C1405.82 139 1405.71 138.942 1405.59 138.942C1405.47 138.882 1405.35 138.882 1405.24 138.822L1404.88 138.646C1404.77 138.587 1404.71 138.528 1404.59 138.41C1404.5 138.324 1404.42 138.224 1404.35 138.114L1404.18 137.761C1404.12 137.642 1404.06 137.524 1404.06 137.406C1404 137.229 1404 137.111 1404 136.993C1404 136.816 1404.06 136.698 1404.06 136.58C1404.06 136.461 1404.12 136.343 1404.18 136.226L1404.35 135.871C1404.41 135.753 1404.47 135.694 1404.59 135.576C1404.65 135.517 1404.77 135.399 1404.88 135.34L1405.24 135.162C1405.35 135.104 1405.47 135.045 1405.59 135.045C1405.82 134.985 1406.12 134.985 1406.35 135.045C1406.47 135.104 1406.59 135.104 1406.71 135.162L1407.06 135.34C1407.18 135.399 1407.23 135.457 1407.35 135.576C1407.41 135.636 1407.53 135.753 1407.59 135.871C1407.65 135.989 1407.71 136.107 1407.76 136.226ZM1427.76 98.226C1427.82 98.343 1427.83 98.461 1427.94 98.579C1428 98.756 1428 98.875 1428 98.993C1428 99.17 1427.94 99.288 1427.94 99.406C1427.88 99.524 1427.88 99.642 1427.82 99.76C1427.76 99.878 1427.71 99.996 1427.65 100.114C1427.59 100.232 1427.53 100.292 1427.41 100.41C1427.33 100.503 1427.23 100.583 1427.12 100.646L1426.76 100.823C1426.65 100.882 1426.53 100.941 1426.41 100.941C1426.24 101 1426.12 101 1426 101C1425.82 101 1425.71 100.941 1425.59 100.941C1425.47 100.881 1425.35 100.881 1425.24 100.823L1424.88 100.646C1424.76 100.586 1424.71 100.528 1424.59 100.41C1424.49 100.324 1424.42 100.224 1424.35 100.114L1424.18 99.76C1424.12 99.642 1424.06 99.524 1424.06 99.406C1424 99.229 1424 99.111 1424 98.993C1424 98.815 1424.06 98.697 1424.06 98.579C1424.12 98.461 1424.12 98.343 1424.18 98.225L1424.35 97.871C1424.41 97.753 1424.47 97.694 1424.59 97.576C1424.67 97.4827 1424.77 97.4028 1424.88 97.339L1425.24 97.162C1425.35 97.103 1425.47 97.044 1425.59 97.044C1425.82 96.985 1426.12 96.985 1426.35 97.044C1426.47 97.104 1426.59 97.104 1426.71 97.162C1426.82 97.222 1426.94 97.28 1427.06 97.339C1427.18 97.399 1427.24 97.458 1427.35 97.576C1427.41 97.635 1427.53 97.753 1427.59 97.871L1427.76 98.225V98.226ZM1488 97C1489.12 97 1490 97.882 1490 99C1490 100.118 1489.12 101 1488 101C1486.88 101 1486 100.118 1486 99C1486 97.882 1486.88 97 1488 97ZM1467 97C1468.06 97 1468.94 97.882 1469 99C1469 100.118 1468.12 101 1467 101C1465.88 101 1465 100.118 1465 99C1465 97.882 1465.88 97 1467 97ZM1447 97C1448.12 97 1449 97.882 1449 99C1449 100.118 1448.12 101 1447 101C1445.88 101 1445 100.118 1445 99C1445 97.882 1445.88 97 1447 97ZM1427.76 117.226C1427.82 117.343 1427.83 117.521 1427.94 117.58C1428 117.756 1428 117.875 1428 117.993C1428 118.17 1427.94 118.288 1427.94 118.406C1427.88 118.524 1427.88 118.642 1427.82 118.761C1427.76 118.879 1427.71 118.997 1427.65 119.114C1427.59 119.232 1427.53 119.292 1427.41 119.41C1427.35 119.47 1427.24 119.587 1427.12 119.646L1426.76 119.823C1426.65 119.883 1426.53 119.942 1426.41 119.942C1426.24 120 1426.12 120 1426 120C1425.82 120 1425.71 119.942 1425.59 119.942C1425.47 119.882 1425.35 119.882 1425.24 119.822L1424.88 119.646C1424.76 119.587 1424.71 119.528 1424.59 119.41C1424.49 119.324 1424.41 119.224 1424.35 119.114L1424.18 118.761C1424.12 118.642 1424.06 118.524 1424.06 118.406C1424 118.229 1424 118.111 1424 117.993C1424 117.816 1424.06 117.698 1424.06 117.58C1424.12 117.461 1424.12 117.343 1424.18 117.226L1424.35 116.871C1424.41 116.753 1424.47 116.694 1424.59 116.576C1424.65 116.517 1424.76 116.399 1424.88 116.34L1425.24 116.162C1425.35 116.104 1425.47 116.045 1425.59 116.045C1425.82 115.985 1426.12 115.985 1426.35 116.045C1426.47 116.104 1426.59 116.104 1426.71 116.162L1427.06 116.34C1427.18 116.399 1427.24 116.457 1427.35 116.576C1427.41 116.636 1427.53 116.753 1427.59 116.871C1427.65 116.989 1427.71 117.107 1427.76 117.226ZM1488 116C1489.12 116 1490 116.882 1490 118C1490 119.118 1489.12 120 1488 120C1486.88 120 1486 119.118 1486 118C1486 116.882 1486.88 116 1488 116ZM1467 116C1467.53 116 1468.04 116.211 1468.41 116.586C1468.79 116.961 1469 117.47 1469 118C1469 118.53 1468.79 119.039 1468.41 119.414C1468.04 119.789 1467.53 120 1467 120C1466.47 120 1465.96 119.789 1465.59 119.414C1465.21 119.039 1465 118.53 1465 118C1465 117.47 1465.21 116.961 1465.59 116.586C1465.96 116.211 1466.47 116 1467 116ZM1447 116C1447.53 116 1448.04 116.211 1448.41 116.586C1448.79 116.961 1449 117.47 1449 118C1449 118.53 1448.79 119.039 1448.41 119.414C1448.04 119.789 1447.53 120 1447 120C1446.47 120 1445.96 119.789 1445.59 119.414C1445.21 119.039 1445 118.53 1445 118C1445 117.47 1445.21 116.961 1445.59 116.586C1445.96 116.211 1446.47 116 1447 116ZM1427.76 136.226C1427.82 136.343 1427.83 136.461 1427.94 136.58C1428 136.756 1428 136.875 1428 136.993C1428 137.17 1427.94 137.288 1427.94 137.406C1427.88 137.524 1427.88 137.642 1427.82 137.761C1427.76 137.879 1427.71 137.997 1427.65 138.114C1427.59 138.232 1427.53 138.292 1427.41 138.41C1427.35 138.47 1427.24 138.587 1427.12 138.646L1426.76 138.823C1426.65 138.883 1426.53 138.942 1426.41 138.942C1426.24 139 1426.12 139 1426 139C1425.82 139 1425.71 138.942 1425.59 138.942C1425.47 138.882 1425.35 138.882 1425.24 138.822L1424.88 138.646C1424.76 138.587 1424.71 138.528 1424.59 138.41C1424.49 138.324 1424.41 138.224 1424.35 138.114L1424.18 137.761C1424.12 137.642 1424.06 137.524 1424.06 137.406C1424 137.229 1424 137.111 1424 136.993C1424 136.816 1424.06 136.698 1424.06 136.58C1424.12 136.461 1424.12 136.343 1424.18 136.226L1424.35 135.871C1424.41 135.753 1424.47 135.694 1424.59 135.576C1424.65 135.517 1424.76 135.399 1424.88 135.34L1425.24 135.162C1425.35 135.104 1425.47 135.045 1425.59 135.045C1425.82 134.985 1426.12 134.985 1426.35 135.045C1426.47 135.104 1426.59 135.104 1426.71 135.162L1427.06 135.34C1427.18 135.399 1427.24 135.457 1427.35 135.576C1427.41 135.636 1427.53 135.753 1427.59 135.871C1427.65 135.989 1427.71 136.107 1427.76 136.226ZM1488 135C1489.12 135 1490 135.882 1490 137C1490 138.118 1489.12 139 1488 139C1486.88 139 1486 138.118 1486 137C1486 135.882 1486.88 135 1488 135ZM1467 135C1467.53 135 1468.04 135.211 1468.41 135.586C1468.79 135.961 1469 136.47 1469 137C1469 137.53 1468.79 138.039 1468.41 138.414C1468.04 138.789 1467.53 139 1467 139C1466.47 139 1465.96 138.789 1465.59 138.414C1465.21 138.039 1465 137.53 1465 137C1465 136.47 1465.21 135.961 1465.59 135.586C1465.96 135.211 1466.47 135 1467 135ZM1447 135C1447.53 135 1448.04 135.211 1448.41 135.586C1448.79 135.961 1449 136.47 1449 137C1449 137.53 1448.79 138.039 1448.41 138.414C1448.04 138.789 1447.53 139 1447 139C1446.47 139 1445.96 138.789 1445.59 138.414C1445.21 138.039 1445 137.53 1445 137C1445 136.47 1445.21 135.961 1445.59 135.586C1445.96 135.211 1446.47 135 1447 135ZM1385 20C1385.53 20 1386.04 20.2107 1386.41 20.5858C1386.79 20.9609 1387 21.4696 1387 22C1387 22.5304 1386.79 23.0391 1386.41 23.4142C1386.04 23.7893 1385.53 24 1385 24C1384.47 24 1383.96 23.7893 1383.59 23.4142C1383.21 23.0391 1383 22.5304 1383 22C1383 21.4696 1383.21 20.9609 1383.59 20.5858C1383.96 20.2107 1384.47 20 1385 20ZM1365 20C1365.53 20 1366.04 20.2107 1366.41 20.5858C1366.79 20.9609 1367 21.4696 1367 22C1367 22.5304 1366.79 23.0391 1366.41 23.4142C1366.04 23.7893 1365.53 24 1365 24C1364.47 24 1363.96 23.7893 1363.59 23.4142C1363.21 23.0391 1363 22.5304 1363 22C1363 21.4696 1363.21 20.9609 1363.59 20.5858C1363.96 20.2107 1364.47 20 1365 20ZM1407.76 21.225C1407.82 21.343 1407.82 21.461 1407.94 21.579C1408 21.756 1408 21.816 1408 21.993C1408 22.17 1407.94 22.288 1407.94 22.406C1407.88 22.524 1407.88 22.642 1407.82 22.76L1407.65 23.114C1407.59 23.232 1407.53 23.292 1407.41 23.41C1407.33 23.5027 1407.23 23.5822 1407.12 23.646L1406.76 23.823C1406.65 23.882 1406.53 23.941 1406.41 23.941C1406.24 24 1406.12 24 1406 24C1405.82 24 1405.71 23.941 1405.59 23.941C1405.47 23.881 1405.35 23.881 1405.24 23.823C1405.12 23.763 1405 23.705 1404.88 23.646C1404.77 23.586 1404.71 23.528 1404.59 23.41C1404.5 23.3234 1404.42 23.2237 1404.35 23.114L1404.18 22.76C1404.12 22.642 1404.06 22.524 1404.06 22.406C1404 22.229 1404 22.17 1404 21.993C1404 21.816 1404.06 21.697 1404.06 21.579C1404.06 21.461 1404.12 21.343 1404.18 21.225L1404.35 20.871C1404.41 20.753 1404.47 20.694 1404.59 20.576C1404.65 20.516 1404.77 20.399 1404.88 20.339L1405.24 20.162C1405.35 20.103 1405.47 20.044 1405.59 20.044C1405.82 19.985 1406.12 19.985 1406.35 20.044C1406.47 20.104 1406.59 20.104 1406.71 20.162L1407.06 20.339C1407.18 20.399 1407.23 20.458 1407.35 20.576C1407.41 20.635 1407.53 20.753 1407.59 20.871L1407.76 21.225ZM1427.76 21.225C1427.82 21.343 1427.83 21.461 1427.94 21.579C1428 21.756 1428 21.816 1428 21.993C1428 22.17 1427.94 22.288 1427.94 22.406C1427.88 22.524 1427.88 22.642 1427.82 22.76C1427.76 22.878 1427.71 22.996 1427.65 23.114C1427.59 23.232 1427.53 23.292 1427.41 23.41C1427.33 23.503 1427.23 23.5825 1427.12 23.646L1426.76 23.823C1426.65 23.882 1426.53 23.941 1426.41 23.941C1426.24 24 1426.12 24 1426 24C1425.82 24 1425.71 23.941 1425.59 23.941C1425.47 23.881 1425.35 23.881 1425.24 23.823L1424.88 23.646C1424.76 23.586 1424.71 23.528 1424.59 23.41C1424.49 23.3235 1424.42 23.2238 1424.35 23.114L1424.18 22.76C1424.12 22.642 1424.06 22.524 1424.06 22.406C1424 22.229 1424 22.17 1424 21.993C1424 21.816 1424.06 21.697 1424.06 21.579C1424.12 21.461 1424.12 21.343 1424.18 21.225L1424.35 20.871C1424.41 20.753 1424.47 20.694 1424.59 20.576C1424.67 20.4827 1424.77 20.4028 1424.88 20.339L1425.24 20.162C1425.35 20.103 1425.47 20.044 1425.59 20.044C1425.82 19.985 1426.12 19.985 1426.35 20.044C1426.47 20.104 1426.59 20.104 1426.71 20.162L1427.06 20.339C1427.18 20.399 1427.24 20.458 1427.35 20.576C1427.41 20.635 1427.53 20.753 1427.59 20.871L1427.76 21.225ZM1467 20C1467.53 20 1468.04 20.2107 1468.41 20.5858C1468.79 20.9609 1469 21.4696 1469 22C1469 22.5304 1468.79 23.0391 1468.41 23.4142C1468.04 23.7893 1467.53 24 1467 24C1466.47 24 1465.96 23.7893 1465.59 23.4142C1465.21 23.0391 1465 22.5304 1465 22C1465 21.4696 1465.21 20.9609 1465.59 20.5858C1465.96 20.2107 1466.47 20 1467 20ZM1447 20C1447.53 20 1448.04 20.2107 1448.41 20.5858C1448.79 20.9609 1449 21.4696 1449 22C1449 22.5304 1448.79 23.0391 1448.41 23.4142C1448.04 23.7893 1447.53 24 1447 24C1446.47 24 1445.96 23.7893 1445.59 23.4142C1445.21 23.0391 1445 22.5304 1445 22C1445 21.4696 1445.21 20.9609 1445.59 20.5858C1445.96 20.2107 1446.47 20 1447 20ZM1385 5.88968e-06C1385.53 5.88968e-06 1386.04 0.21072 1386.41 0.585793C1386.79 0.960865 1387 1.46958 1387 2.00001C1387 2.53044 1386.79 3.03915 1386.41 3.41422C1386.04 3.78929 1385.53 4.00001 1385 4.00001C1384.47 4.00001 1383.96 3.78929 1383.59 3.41422C1383.21 3.03915 1383 2.53044 1383 2.00001C1383 1.46958 1383.21 0.960865 1383.59 0.585793C1383.96 0.21072 1384.47 5.88968e-06 1385 5.88968e-06ZM1407.76 1.22501C1407.82 1.34301 1407.82 1.46101 1407.94 1.57901C1408 1.75601 1408 1.87501 1408 1.99301C1408 2.17001 1407.94 2.28801 1407.94 2.40601C1407.88 2.52401 1407.88 2.64201 1407.82 2.76001L1407.65 3.11401C1407.59 3.23201 1407.53 3.29201 1407.41 3.41001C1407.33 3.50271 1407.23 3.58224 1407.12 3.64601L1406.76 3.82301C1406.65 3.88201 1406.53 3.94101 1406.41 3.94101C1406.24 4.00001 1406.12 4.00001 1406 4.00001C1405.82 4.00001 1405.71 3.94101 1405.59 3.94101C1405.47 3.88101 1405.35 3.88101 1405.24 3.82301C1405.12 3.76301 1405 3.70501 1404.88 3.64601C1404.77 3.58601 1404.71 3.52801 1404.59 3.41001C1404.5 3.32344 1404.42 3.2237 1404.35 3.11401L1404.18 2.76001C1404.12 2.64201 1404.06 2.52401 1404.06 2.40601C1404 2.22901 1404 2.11001 1404 1.99301C1404 1.81501 1404.06 1.69701 1404.06 1.57901C1404.06 1.46101 1404.12 1.34301 1404.18 1.22501L1404.35 0.871006C1404.41 0.753006 1404.47 0.694006 1404.59 0.576006C1404.65 0.516006 1404.77 0.399006 1404.88 0.339006L1405.24 0.162006C1405.35 0.103006 1405.47 0.0440059 1405.59 0.0440059C1405.82 -0.0149941 1406.12 -0.0149941 1406.35 0.0440059C1406.47 0.104006 1406.59 0.104006 1406.71 0.162006L1407.06 0.339006C1407.18 0.399006 1407.23 0.458006 1407.35 0.576006C1407.41 0.635006 1407.53 0.753006 1407.59 0.871006L1407.76 1.22501ZM1427.76 1.22501C1427.82 1.34301 1427.83 1.46101 1427.94 1.57901C1428 1.75601 1428 1.87501 1428 1.99301C1428 2.17001 1427.94 2.28801 1427.94 2.40601C1427.88 2.52401 1427.88 2.64201 1427.82 2.76001C1427.76 2.87801 1427.71 2.99601 1427.65 3.11401C1427.59 3.23201 1427.53 3.29201 1427.41 3.41001C1427.33 3.50297 1427.23 3.58253 1427.12 3.64601L1426.76 3.82301C1426.65 3.88201 1426.53 3.94101 1426.41 3.94101C1426.24 4.00001 1426.12 4.00001 1426 4.00001C1425.82 4.00001 1425.71 3.94101 1425.59 3.94101C1425.47 3.88101 1425.35 3.88101 1425.24 3.82301L1424.88 3.64601C1424.76 3.58601 1424.71 3.52801 1424.59 3.41001C1424.49 3.3235 1424.42 3.22376 1424.35 3.11401L1424.18 2.76001C1424.12 2.64201 1424.06 2.52401 1424.06 2.40601C1424 2.22901 1424 2.11001 1424 1.99301C1424 1.81501 1424.06 1.69701 1424.06 1.57901C1424.12 1.46101 1424.12 1.34301 1424.18 1.22501L1424.35 0.871006C1424.41 0.753006 1424.47 0.694006 1424.59 0.576006C1424.67 0.482686 1424.77 0.402789 1424.88 0.339006L1425.24 0.162006C1425.35 0.103006 1425.47 0.0440059 1425.59 0.0440059C1425.82 -0.0149941 1426.12 -0.0149941 1426.35 0.0440059C1426.47 0.104006 1426.59 0.104006 1426.71 0.162006C1426.82 0.222006 1426.94 0.280006 1427.06 0.339006C1427.18 0.399006 1427.24 0.458006 1427.35 0.576006C1427.41 0.635006 1427.53 0.753006 1427.59 0.871006L1427.76 1.22501ZM1447 5.88968e-06C1447.53 5.88968e-06 1448.04 0.21072 1448.41 0.585793C1448.79 0.960865 1449 1.46958 1449 2.00001C1449 2.53044 1448.79 3.03915 1448.41 3.41422C1448.04 3.78929 1447.53 4.00001 1447 4.00001C1446.47 4.00001 1445.96 3.78929 1445.59 3.41422C1445.21 3.03915 1445 2.53044 1445 2.00001C1445 1.46958 1445.21 0.960865 1445.59 0.585793C1445.96 0.21072 1446.47 5.88968e-06 1447 5.88968e-06ZM1385 155C1385.53 155 1386.04 155.211 1386.41 155.586C1386.79 155.961 1387 156.47 1387 157C1387 157.53 1386.79 158.039 1386.41 158.414C1386.04 158.789 1385.53 159 1385 159C1384.47 159 1383.96 158.789 1383.59 158.414C1383.21 158.039 1383 157.53 1383 157C1383 156.47 1383.21 155.961 1383.59 155.586C1383.96 155.211 1384.47 155 1385 155ZM1365 155C1365.53 155 1366.04 155.211 1366.41 155.586C1366.79 155.961 1367 156.47 1367 157C1367 157.53 1366.79 158.039 1366.41 158.414C1366.04 158.789 1365.53 159 1365 159C1364.47 159 1363.96 158.789 1363.59 158.414C1363.21 158.039 1363 157.53 1363 157C1363 156.47 1363.21 155.961 1363.59 155.586C1363.96 155.211 1364.47 155 1365 155ZM1407.76 156.226C1407.82 156.343 1407.82 156.461 1407.94 156.58C1408 156.756 1408 156.816 1408 156.993C1408 157.17 1407.94 157.288 1407.94 157.406C1407.88 157.524 1407.88 157.642 1407.82 157.761L1407.65 158.114C1407.59 158.232 1407.53 158.292 1407.41 158.41C1407.35 158.47 1407.23 158.587 1407.12 158.646L1406.76 158.823C1406.65 158.883 1406.53 158.942 1406.41 158.942C1406.24 159 1406.12 159 1406 159C1405.82 159 1405.71 158.942 1405.59 158.942C1405.47 158.882 1405.35 158.882 1405.24 158.822L1404.88 158.646C1404.77 158.587 1404.71 158.528 1404.59 158.41C1404.5 158.324 1404.42 158.224 1404.35 158.114L1404.18 157.761C1404.12 157.642 1404.06 157.524 1404.06 157.406C1404 157.229 1404 157.17 1404 156.993C1404 156.816 1404.06 156.698 1404.06 156.58C1404.06 156.461 1404.12 156.343 1404.18 156.226L1404.35 155.871C1404.41 155.753 1404.47 155.694 1404.59 155.576C1404.65 155.517 1404.77 155.399 1404.88 155.34L1405.24 155.162C1405.35 155.104 1405.47 155.045 1405.59 155.045C1405.82 154.985 1406.12 154.985 1406.35 155.045C1406.47 155.104 1406.59 155.104 1406.71 155.162L1407.06 155.34C1407.18 155.399 1407.23 155.457 1407.35 155.576C1407.41 155.636 1407.53 155.753 1407.59 155.871C1407.65 155.989 1407.71 156.107 1407.76 156.226ZM1427.76 156.226C1427.82 156.343 1427.83 156.461 1427.94 156.58C1428 156.756 1428 156.816 1428 156.993C1428 157.17 1427.94 157.288 1427.94 157.406C1427.88 157.524 1427.88 157.642 1427.82 157.761C1427.76 157.879 1427.71 157.997 1427.65 158.114C1427.59 158.232 1427.53 158.292 1427.41 158.41C1427.35 158.47 1427.24 158.587 1427.12 158.646L1426.76 158.823C1426.65 158.883 1426.53 158.942 1426.41 158.942C1426.24 159 1426.12 159 1426 159C1425.82 159 1425.71 158.942 1425.59 158.942C1425.47 158.882 1425.35 158.882 1425.24 158.822L1424.88 158.646C1424.76 158.587 1424.71 158.528 1424.59 158.41C1424.49 158.324 1424.41 158.224 1424.35 158.114L1424.18 157.761C1424.12 157.642 1424.06 157.524 1424.06 157.406C1424 157.229 1424 157.17 1424 156.993C1424 156.816 1424.06 156.698 1424.06 156.58C1424.12 156.461 1424.12 156.343 1424.18 156.226L1424.35 155.871C1424.41 155.753 1424.47 155.694 1424.59 155.576C1424.65 155.517 1424.76 155.399 1424.88 155.34L1425.24 155.162C1425.35 155.104 1425.47 155.045 1425.59 155.045C1425.82 154.985 1426.12 154.985 1426.35 155.045C1426.47 155.104 1426.59 155.104 1426.71 155.162L1427.06 155.34C1427.18 155.399 1427.24 155.457 1427.35 155.576C1427.41 155.636 1427.53 155.753 1427.59 155.871C1427.65 155.989 1427.71 156.107 1427.76 156.226ZM1467 155C1467.53 155 1468.04 155.211 1468.41 155.586C1468.79 155.961 1469 156.47 1469 157C1469 157.53 1468.79 158.039 1468.41 158.414C1468.04 158.789 1467.53 159 1467 159C1466.47 159 1465.96 158.789 1465.59 158.414C1465.21 158.039 1465 157.53 1465 157C1465 156.47 1465.21 155.961 1465.59 155.586C1465.96 155.211 1466.47 155 1467 155ZM1447 155C1447.53 155 1448.04 155.211 1448.41 155.586C1448.79 155.961 1449 156.47 1449 157C1449 157.53 1448.79 158.039 1448.41 158.414C1448.04 158.789 1447.53 159 1447 159C1446.47 159 1445.96 158.789 1445.59 158.414C1445.21 158.039 1445 157.53 1445 157C1445 156.47 1445.21 155.961 1445.59 155.586C1445.96 155.211 1446.47 155 1447 155Z" fill="#306090"/>
</g>
<defs>
<clipPath id="clip0_9_3725">
<rect width="239.227" height="42" fill="white" transform="translate(0 383)"/>
</clipPath>
<clipPath id="clip1_9_3725">
<rect width="174.321" height="179" fill="white" transform="translate(1265.68)"/>
</clipPath>
</defs>
</svg>
