<svg width="428" height="74" viewBox="0 0 428 74" fill="none" xmlns="http://www.w3.org/2000/svg">
<path d="M68.8409 42.1818H59.2273C59.1591 41.3864 58.9773 40.6648 58.6818 40.017C58.3977 39.3693 58 38.8125 57.4886 38.3466C56.9886 37.8693 56.3807 37.5057 55.6648 37.2557C54.9489 36.9943 54.1364 36.8636 53.2273 36.8636C51.6364 36.8636 50.2898 37.25 49.1875 38.0227C48.0966 38.7955 47.267 39.9034 46.6989 41.3466C46.142 42.7898 45.8636 44.5227 45.8636 46.5455C45.8636 48.6818 46.1477 50.4716 46.7159 51.9148C47.2955 53.3466 48.1307 54.4261 49.2216 55.1534C50.3125 55.8693 51.625 56.2273 53.1591 56.2273C54.0341 56.2273 54.8182 56.1193 55.5114 55.9034C56.2045 55.6761 56.8068 55.3523 57.3182 54.9318C57.8295 54.5114 58.2443 54.0057 58.5625 53.4148C58.892 52.8125 59.1136 52.1364 59.2273 51.3864L68.8409 51.4545C68.7273 52.9318 68.3125 54.4375 67.5966 55.9716C66.8807 57.4943 65.8636 58.9034 64.5455 60.1989C63.2386 61.483 61.6193 62.517 59.6875 63.3011C57.7557 64.0852 55.5114 64.4773 52.9545 64.4773C49.75 64.4773 46.875 63.7898 44.3295 62.4148C41.7955 61.0398 39.7898 59.017 38.3125 56.3466C36.8466 53.6761 36.1136 50.4091 36.1136 46.5455C36.1136 42.6591 36.8636 39.3864 38.3636 36.7273C39.8636 34.0568 41.8864 32.0398 44.4318 30.6761C46.9773 29.3011 49.8182 28.6136 52.9545 28.6136C55.1591 28.6136 57.1875 28.9148 59.0398 29.517C60.892 30.1193 62.517 31 63.9148 32.1591C65.3125 33.3068 66.4375 34.7216 67.2898 36.4034C68.142 38.0852 68.6591 40.0114 68.8409 42.1818ZM82.6861 29.0909V64H73.277V29.0909H82.6861ZM94.7756 64.4091C93.1051 64.4091 91.6278 64.1364 90.3438 63.5909C89.071 63.0341 88.071 62.1932 87.3438 61.0682C86.6165 59.9432 86.2528 58.5114 86.2528 56.7727C86.2528 55.3409 86.4972 54.1193 86.9858 53.108C87.4744 52.0852 88.1562 51.25 89.0312 50.6023C89.9062 49.9545 90.9233 49.4602 92.0824 49.1193C93.2528 48.7784 94.5142 48.5568 95.8665 48.4545C97.3324 48.3409 98.5085 48.2045 99.3949 48.0455C100.293 47.875 100.94 47.642 101.338 47.3466C101.736 47.0398 101.935 46.6364 101.935 46.1364V46.0682C101.935 45.3864 101.673 44.8636 101.151 44.5C100.628 44.1364 99.9574 43.9545 99.1392 43.9545C98.2415 43.9545 97.5085 44.1534 96.9403 44.5511C96.3835 44.9375 96.0483 45.5341 95.9347 46.3409H87.2756C87.3892 44.75 87.8949 43.2841 88.7926 41.9432C89.7017 40.5909 91.0256 39.5114 92.7642 38.7045C94.5028 37.8864 96.6733 37.4773 99.2756 37.4773C101.151 37.4773 102.832 37.6989 104.321 38.142C105.81 38.5739 107.077 39.1818 108.122 39.9659C109.168 40.7386 109.963 41.6477 110.509 42.6932C111.065 43.7273 111.344 44.8523 111.344 46.0682V64H102.548V60.3182H102.344C101.821 61.2955 101.185 62.0852 100.435 62.6875C99.696 63.2898 98.8494 63.7273 97.8949 64C96.9517 64.2727 95.9119 64.4091 94.7756 64.4091ZM97.8438 58.4773C98.5597 58.4773 99.2301 58.3295 99.8551 58.0341C100.491 57.7386 101.009 57.3125 101.406 56.7557C101.804 56.1989 102.003 55.5227 102.003 54.7273V52.5455C101.753 52.6477 101.486 52.7443 101.202 52.8352C100.929 52.9261 100.634 53.0114 100.315 53.0909C100.009 53.1705 99.679 53.2443 99.3267 53.3125C98.9858 53.3807 98.6278 53.4432 98.2528 53.5C97.5256 53.6136 96.929 53.8011 96.4631 54.0625C96.0085 54.3125 95.6676 54.625 95.4403 55C95.2244 55.3636 95.1165 55.7727 95.1165 56.2273C95.1165 56.9545 95.3722 57.5114 95.8835 57.8977C96.3949 58.2841 97.0483 58.4773 97.8438 58.4773ZM115.839 64V37.8182H124.976V42.7955H125.249C125.726 40.9545 126.482 39.608 127.516 38.7557C128.561 37.9034 129.783 37.4773 131.18 37.4773C131.589 37.4773 131.993 37.5114 132.391 37.5795C132.8 37.6364 133.192 37.7216 133.567 37.8352V45.8636C133.101 45.7045 132.527 45.5852 131.845 45.5057C131.163 45.4261 130.578 45.3864 130.089 45.3864C129.169 45.3864 128.339 45.5966 127.601 46.017C126.874 46.4261 126.3 47.0057 125.879 47.7557C125.459 48.4943 125.249 49.3636 125.249 50.3636V64H115.839ZM136.652 64V37.8182H146.061V64H136.652ZM141.357 35.0909C140.084 35.0909 138.993 34.6705 138.084 33.8295C137.175 32.9886 136.72 31.9773 136.72 30.7955C136.72 29.6136 137.175 28.6023 138.084 27.7614C138.993 26.9205 140.084 26.5 141.357 26.5C142.641 26.5 143.732 26.9205 144.629 27.7614C145.538 28.6023 145.993 29.6136 145.993 30.7955C145.993 31.9773 145.538 32.9886 144.629 33.8295C143.732 34.6705 142.641 35.0909 141.357 35.0909ZM166.469 37.8182V44.6364H149.219V37.8182H166.469ZM152.56 31.5455H161.969V55.5795C161.969 55.9432 162.031 56.25 162.156 56.5C162.281 56.7386 162.474 56.9205 162.736 57.0455C162.997 57.1591 163.332 57.2159 163.741 57.2159C164.026 57.2159 164.355 57.1818 164.73 57.1136C165.116 57.0455 165.401 56.9886 165.582 56.9432L166.946 63.5568C166.526 63.6818 165.923 63.8352 165.139 64.017C164.366 64.1989 163.446 64.3182 162.378 64.375C160.219 64.4886 158.406 64.267 156.94 63.7102C155.474 63.142 154.372 62.25 153.634 61.0341C152.895 59.8182 152.537 58.2955 152.56 56.4659V31.5455ZM176.036 73.8182C174.956 73.8182 173.928 73.733 172.95 73.5625C171.973 73.4034 171.115 73.1818 170.376 72.8977L172.422 66.2159C173.195 66.4886 173.899 66.6648 174.536 66.7443C175.183 66.8239 175.734 66.7784 176.189 66.608C176.655 66.4375 176.99 66.1136 177.195 65.6364L177.399 65.1591L168.195 37.8182H178.013L182.24 55.9545H182.513L186.808 37.8182H196.695L187.149 66.1818C186.672 67.625 185.979 68.9205 185.07 70.0682C184.172 71.2273 182.99 72.142 181.524 72.8125C180.058 73.483 178.229 73.8182 176.036 73.8182Z" fill="black"/>
<path d="M206.615 64L212.411 29.0909H227.479C230.07 29.0909 232.251 29.6023 234.024 30.625C235.797 31.6477 237.07 33.0852 237.842 34.9375C238.615 36.7898 238.797 38.9545 238.388 41.4318C237.979 43.9545 237.07 46.1307 235.661 47.9602C234.263 49.7784 232.479 51.1818 230.308 52.1705C228.149 53.1477 225.729 53.6364 223.047 53.6364H214.047L215.274 46.2727H222.365C223.501 46.2727 224.501 46.0795 225.365 45.6932C226.229 45.2955 226.928 44.7386 227.462 44.0227C227.996 43.2955 228.342 42.4318 228.501 41.4318C228.661 40.4318 228.587 39.5795 228.28 38.875C227.984 38.1591 227.473 37.6136 226.746 37.2386C226.03 36.8523 225.115 36.6591 224.001 36.6591H220.661L216.092 64H206.615ZM238.251 64L242.615 37.8182H251.751L250.933 42.7955H251.206C251.99 40.9545 252.973 39.608 254.155 38.7557C255.337 37.9034 256.626 37.4773 258.024 37.4773C258.433 37.4773 258.825 37.5114 259.2 37.5795C259.587 37.6364 259.967 37.7159 260.342 37.8182L258.979 45.8636C258.536 45.6932 257.984 45.5739 257.325 45.5057C256.666 45.4261 256.081 45.3864 255.57 45.3864C254.661 45.3864 253.808 45.5966 253.013 46.017C252.229 46.4261 251.558 47.0057 251.001 47.7557C250.456 48.4943 250.092 49.3636 249.911 50.3636L247.661 64H238.251ZM270.109 64.4773C267.268 64.4773 264.928 63.9148 263.087 62.7898C261.257 61.6534 259.973 60.0739 259.234 58.0511C258.496 56.017 258.348 53.6591 258.791 50.9773C259.234 48.2955 260.161 45.9432 261.57 43.9205C262.979 41.8864 264.791 40.3068 267.007 39.1818C269.223 38.0455 271.757 37.4773 274.609 37.4773C277.439 37.4773 279.768 38.0455 281.598 39.1818C283.439 40.3068 284.729 41.8864 285.467 43.9205C286.217 45.9432 286.371 48.2955 285.928 50.9773C285.484 53.6591 284.553 56.017 283.132 58.0511C281.712 60.0739 279.893 61.6534 277.678 62.7898C275.473 63.9148 272.95 64.4773 270.109 64.4773ZM271.268 57.5227C272.087 57.5227 272.831 57.2557 273.501 56.7216C274.183 56.1875 274.763 55.4261 275.24 54.4375C275.729 53.4489 276.087 52.2727 276.314 50.9091C276.541 49.5341 276.575 48.358 276.416 47.3807C276.257 46.392 275.928 45.6307 275.428 45.0966C274.928 44.5625 274.268 44.2955 273.45 44.2955C272.632 44.2955 271.882 44.5625 271.2 45.0966C270.518 45.6307 269.939 46.392 269.462 47.3807C268.984 48.358 268.632 49.5341 268.405 50.9091C268.178 52.2727 268.138 53.4489 268.286 54.4375C268.445 55.4261 268.774 56.1875 269.274 56.7216C269.786 57.2557 270.45 57.5227 271.268 57.5227ZM287.428 64L293.223 29.0909H318.382L317.087 36.7273H301.405L300.45 42.7273H314.837L313.541 50.3636H299.155L298.2 56.3636H313.814L312.518 64H287.428ZM332.628 29.0909L326.832 64H317.423L323.219 29.0909H332.628ZM331.626 64L335.99 37.8182H345.399L341.036 64H331.626ZM341.104 35.0909C339.831 35.0909 338.803 34.6705 338.018 33.8295C337.234 32.9773 336.945 31.9659 337.149 30.7955C337.354 29.6023 337.979 28.5909 339.024 27.7614C340.07 26.9205 341.229 26.5 342.501 26.5C343.786 26.5 344.808 26.9205 345.57 27.7614C346.331 28.5909 346.615 29.6023 346.422 30.7955C346.24 31.9659 345.626 32.9773 344.581 33.8295C343.547 34.6705 342.388 35.0909 341.104 35.0909ZM365.807 37.8182L364.648 44.6364H347.398L348.557 37.8182H365.807ZM352.92 31.5455H362.33L358.341 55.5795C358.284 55.9432 358.295 56.25 358.375 56.5C358.455 56.7386 358.614 56.9205 358.852 57.0455C359.102 57.1591 359.432 57.2159 359.841 57.2159C360.114 57.2159 360.449 57.1818 360.847 57.1136C361.244 57.0341 361.545 56.9773 361.75 56.9432L362.023 63.5568C361.545 63.6932 360.903 63.8466 360.097 64.017C359.301 64.1989 358.375 64.3182 357.318 64.375C355.114 64.4773 353.318 64.2443 351.932 63.6761C350.557 63.108 349.602 62.2216 349.068 61.017C348.545 59.8011 348.455 58.2841 348.795 56.4659L352.92 31.5455ZM377.479 64.4773C374.683 64.4773 372.365 63.9432 370.524 62.875C368.683 61.7955 367.388 60.25 366.638 58.2386C365.888 56.2159 365.751 53.7955 366.229 50.9773C366.683 48.2727 367.621 45.9091 369.041 43.8864C370.473 41.8636 372.274 40.2898 374.445 39.1648C376.626 38.0398 379.07 37.4773 381.774 37.4773C383.751 37.4773 385.484 37.7841 386.973 38.3977C388.473 39.0114 389.695 39.9034 390.638 41.0739C391.581 42.2443 392.217 43.6591 392.547 45.3182C392.888 46.9659 392.888 48.8295 392.547 50.9091L392.206 53.0909H368.82L369.638 47.9091H384.365C384.479 47.1591 384.405 46.5 384.143 45.9318C383.893 45.3523 383.49 44.9034 382.933 44.5852C382.388 44.2557 381.729 44.0909 380.956 44.0909C380.183 44.0909 379.456 44.2557 378.774 44.5852C378.104 44.9148 377.53 45.375 377.053 45.9659C376.587 46.5568 376.274 47.25 376.115 48.0455L375.092 53.5C374.956 54.3409 375.007 55.0909 375.246 55.75C375.484 56.4091 375.899 56.9261 376.49 57.3011C377.081 57.6761 377.842 57.8636 378.774 57.8636C379.411 57.8636 380.013 57.7784 380.581 57.608C381.161 57.4261 381.672 57.1648 382.115 56.8239C382.57 56.4716 382.933 56.0455 383.206 55.5455H391.797C391.183 57.3636 390.212 58.9432 388.882 60.2841C387.564 61.6136 385.939 62.6477 384.007 63.3864C382.087 64.1136 379.911 64.4773 377.479 64.4773Z" fill="#006FF2"/>
<path d="M398.657 35.0852L401.083 20.3693H405.537L403.111 35.0852H398.657ZM394.361 29.9545L395.117 25.5H409.833L409.077 29.9545H394.361Z" fill="#006FF2"/>
</svg>
