<svg width="92" height="92" viewBox="0 0 92 92" fill="none" xmlns="http://www.w3.org/2000/svg">
<path d="M73.1333 65.0469C72.432 65.0469 71.7426 64.773 71.227 64.2573L56.9609 49.9914L42.6948 64.2575C41.6424 65.3101 39.9357 65.3101 38.8831 64.2575L30.0078 55.382L20.773 64.6169C20.0021 65.3877 18.8426 65.6183 17.8356 65.201C16.8285 64.7838 16.1719 63.8011 16.1719 62.7109V18.8672C16.1719 17.3787 17.3787 16.1719 18.8672 16.1719H73.1328C74.6213 16.1719 75.8281 17.3787 75.8281 18.8672V62.3516C75.8281 63.4417 75.1715 64.4244 74.1642 64.8417C73.8309 64.9799 73.4807 65.0469 73.1333 65.0469V65.0469Z" fill="url(#paint0_linear_1_3094)"/>
<path d="M75.0386 60.4456L58.8667 44.2737C57.8143 43.2211 56.1076 43.2211 55.055 44.2737L40.7891 58.5398L31.9136 49.6644C30.8611 48.6117 29.1545 48.6117 28.1019 49.6644L16.9612 60.805C16.4558 61.3106 16.1719 61.9961 16.1719 62.7109V73.1328C16.1719 74.6213 17.3787 75.8281 18.8672 75.8281H73.1328C74.6213 75.8281 75.8281 74.6213 75.8281 73.1328V62.3515C75.8281 61.6368 75.5442 60.9512 75.0386 60.4456V60.4456ZM40.7898 48.8743C45.2484 48.8743 48.8757 45.2469 48.8757 40.7883C48.8757 36.3297 45.2484 32.7024 40.7898 32.7024C36.3312 32.7024 32.7038 36.3297 32.7038 40.7883C32.7038 45.2469 36.331 48.8743 40.7898 48.8743V48.8743Z" fill="url(#paint1_linear_1_3094)"/>
<defs>
<linearGradient id="paint0_linear_1_3094" x1="46" y1="65.4064" x2="46" y2="16.1719" gradientUnits="userSpaceOnUse">
<stop stop-color="#0376FF"/>
<stop offset="1" stop-color="#42A0FF"/>
</linearGradient>
<linearGradient id="paint1_linear_1_3094" x1="46" y1="75.8281" x2="46" y2="32.7024" gradientUnits="userSpaceOnUse">
<stop stop-color="#ADDCFF"/>
<stop offset="0.5028" stop-color="#EAF6FF"/>
<stop offset="1" stop-color="#EAF6FF"/>
</linearGradient>
</defs>
</svg>
