<svg width="133" height="34" viewBox="0 0 133 34" fill="none" xmlns="http://www.w3.org/2000/svg">
<path d="M59.796 20.852C59.666 21.164 59.51 21.502 59.302 21.84C59.12 22.204 58.886 22.568 58.626 22.932C58.366 23.296 58.08 23.634 57.742 23.946C57.404 24.258 57.04 24.544 56.624 24.804C56.234 25.064 55.792 25.246 55.298 25.402L55.22 25.454C54.986 25.48 54.778 25.506 54.596 25.532C54.388 25.558 54.232 25.558 54.076 25.558C53.296 25.558 52.62 25.376 51.996 24.986C51.398 24.596 50.878 24.05 50.436 23.322C50.02 22.594 49.682 21.684 49.474 20.644C49.24 19.578 49.136 18.408 49.136 17.056C49.136 15.73 49.24 14.534 49.422 13.468C49.63 12.376 49.942 11.466 50.332 10.712C50.748 9.958 51.268 9.36 51.866 8.944C52.49 8.528 53.192 8.32 54.024 8.32C54.18 8.32 54.362 8.32 54.57 8.346C54.778 8.372 55.012 8.398 55.246 8.45L55.298 8.476C56.026 8.684 56.676 9.022 57.222 9.464C57.768 9.906 58.236 10.4 58.626 10.946C59.016 11.466 59.328 12.012 59.588 12.532C59.822 13.052 60.004 13.494 60.108 13.858H60.394L60.004 8.476C58.964 8.216 57.95 7.982 56.936 7.826C55.922 7.67 54.934 7.592 53.92 7.566H53.738C52.204 7.566 50.826 7.826 49.578 8.294C48.356 8.762 47.29 9.438 46.406 10.296C45.548 11.154 44.872 12.168 44.404 13.338C43.91 14.482 43.676 15.756 43.676 17.16C43.676 18.512 43.936 19.734 44.456 20.852C44.95 21.996 45.652 22.958 46.562 23.764C47.446 24.57 48.538 25.194 49.76 25.636C51.008 26.078 52.386 26.312 53.842 26.312C53.894 26.312 54.05 26.312 54.102 26.312C54.128 26.312 54.18 26.312 54.232 26.286C55.194 26.26 56.13 26.182 57.092 26.026C58.054 25.87 59.016 25.662 60.004 25.376L60.394 20.02H60.108C60.03 20.254 59.926 20.514 59.796 20.852ZM69.1302 25.012C68.5322 24.128 68.2202 23.114 68.2202 22.074V6.864L68.0642 6.734L62.2922 7.956V8.138C63.0462 9.048 63.4362 10.192 63.4362 11.388V22.074C63.4362 23.14 63.1242 24.18 62.5002 25.038L62.0842 25.636V25.818H69.5462V25.636L69.1302 25.012ZM83.1661 24.934C82.6201 24.024 82.3341 22.958 82.3341 21.84V17.888V17.55C82.3341 16.562 82.2561 15.834 82.1001 15.34C81.9441 14.846 81.6841 14.404 81.2941 14.04C80.8521 13.598 80.2541 13.234 79.5261 13C78.8241 12.766 78.0181 12.636 77.1341 12.636C75.5481 12.636 74.2481 13.026 73.2341 13.754C72.2461 14.482 71.7261 15.418 71.7261 16.51C71.7261 17.03 71.8821 17.446 72.1681 17.758C72.4541 18.096 72.8441 18.252 73.3121 18.252C73.8321 18.252 74.2481 18.07 74.5601 17.706C74.8721 17.342 75.0541 16.848 75.0541 16.25C75.0541 16.172 75.0281 16.016 75.0281 15.73C75.0021 15.444 75.0021 15.21 75.0021 15.002C75.0021 14.612 75.1321 14.3 75.3921 14.04C75.6781 13.78 76.0161 13.65 76.4321 13.65C76.9261 13.65 77.3161 13.858 77.5241 14.248C77.7321 14.664 77.8621 15.314 77.8621 16.224V17.108C75.0541 18.252 73.2081 19.214 72.2981 19.994C71.3881 20.774 70.9201 21.684 70.9201 22.75C70.9201 23.634 71.2321 24.362 71.8301 24.96C72.4281 25.506 73.2081 25.792 74.1441 25.792C74.8721 25.792 75.5741 25.636 76.2241 25.272C76.5621 25.09 76.9261 24.83 77.2641 24.544C77.4721 24.362 77.6541 24.154 77.8621 23.946V25.792H83.5821V25.61L83.1661 24.934ZM76.7961 23.452C76.4581 23.452 76.1981 23.296 76.0161 22.984C75.8081 22.672 75.7041 22.256 75.7041 21.736C75.7041 20.826 75.8861 20.046 76.2501 19.396C76.6141 18.772 77.1601 18.304 77.8621 18.018V20.358C77.8621 21.736 77.7841 22.594 77.6281 22.958C77.4721 23.296 77.1861 23.452 76.7961 23.452ZM97.013 13.182C96.597 12.818 96.077 12.662 95.479 12.662C94.621 12.662 93.867 12.896 93.191 13.39C92.515 13.858 92.021 14.534 91.709 15.392L91.605 15.73V12.792L91.475 12.662L85.573 13.884V14.066C86.379 15.002 86.821 16.172 86.821 17.394V21.346C86.821 22.88 86.353 24.388 85.469 25.636V25.818H92.957V25.636C92.073 24.362 91.605 22.828 91.605 21.268V17.03C91.683 16.25 92.177 15.496 92.177 15.496C92.177 15.496 92.723 14.638 94.205 15.496C94.257 15.522 94.309 15.574 94.361 15.6C94.413 15.626 94.465 15.652 94.517 15.704C95.115 16.016 95.583 16.198 95.999 16.198C96.441 16.198 96.831 16.042 97.143 15.73C97.455 15.418 97.611 15.028 97.611 14.56C97.611 14.014 97.403 13.546 97.013 13.182ZM105.05 24.934C104.478 24.128 104.192 23.14 104.192 22.152V12.792L104.062 12.662L98.1596 13.884V14.092C98.9656 15.002 99.4076 16.172 99.4076 17.394V22.152C99.4076 23.166 99.0956 24.154 98.5236 24.986L98.0556 25.636V25.818H105.518V25.636L105.05 24.934ZM99.7196 10.634C99.9536 10.842 100.214 10.998 100.526 11.128C100.864 11.232 101.202 11.31 101.566 11.31C101.956 11.31 102.294 11.232 102.632 11.128C102.944 10.998 103.23 10.842 103.464 10.634C103.698 10.426 103.88 10.192 104.01 9.906C104.14 9.594 104.192 9.282 104.192 8.918C104.192 8.606 104.14 8.294 104.01 8.008C103.88 7.722 103.698 7.462 103.464 7.254C103.23 7.02 102.944 6.864 102.632 6.734C102.294 6.63 101.956 6.552 101.566 6.552C101.202 6.552 100.864 6.63 100.526 6.734C100.214 6.864 99.9536 7.02 99.7196 7.228C99.4856 7.436 99.3296 7.696 99.1996 7.982C99.0696 8.268 98.9916 8.606 98.9916 8.918C98.9916 9.282 99.0696 9.594 99.1996 9.906C99.3296 10.192 99.4856 10.426 99.7196 10.634ZM118.189 23.738C117.929 23.92 117.591 24.076 117.175 24.18C116.785 24.284 116.317 24.336 115.823 24.336C115.277 24.336 114.861 24.18 114.575 23.842C114.263 23.53 114.133 23.036 114.133 22.36V13.494H117.955V12.974H114.133V9.438H113.873C113.847 9.568 113.795 9.698 113.743 9.802C112.625 12.61 109.453 13.078 108.231 13.156C108.231 13.156 108.231 13.156 108.205 13.156L107.737 13.182V13.494H109.349V22.438C109.349 23.062 109.479 23.608 109.687 24.076C109.921 24.518 110.207 24.908 110.597 25.22C110.987 25.506 111.429 25.74 111.923 25.896C112.417 26.052 112.963 26.13 113.535 26.13C114.081 26.13 114.575 26.052 115.069 25.948C115.563 25.818 116.005 25.662 116.421 25.454C116.811 25.272 117.175 25.038 117.513 24.752C117.825 24.492 118.111 24.206 118.345 23.92L118.189 23.738ZM128.684 13.156C129.464 14.378 129.594 15.938 129.022 17.29L127.28 21.294L125.694 17.264C125.174 15.912 125.278 14.404 126.032 13.156V12.974H118.154V13.156L118.83 14.092C119.324 14.768 119.74 15.496 120.078 16.25L124.576 26.182C124.654 26.39 124.758 26.78 124.654 27.17C124.654 27.248 124.628 27.326 124.602 27.378C124.472 27.794 124.108 27.976 123.744 28.08C123.588 28.132 123.432 28.132 123.25 28.132C123.068 28.106 122.808 28.028 122.444 27.898C122.392 27.898 122.366 27.872 122.314 27.872C121.638 27.612 121.118 27.56 120.754 27.664C120.364 27.768 120.078 28.002 119.896 28.34C119.714 28.678 119.662 29.016 119.792 29.406C119.922 29.874 120.26 30.238 120.754 30.42C121.248 30.628 121.82 30.628 122.444 30.446C123.354 30.16 124.082 29.536 124.602 28.6C124.836 28.184 125.044 27.69 125.226 27.144L125.512 26.312L129.516 17.42C130.192 15.912 131.05 14.508 132.116 13.234L132.194 13.156V12.974H128.684V13.156ZM124.498 26.026C124.498 26.026 124.524 26.104 124.576 26.182L124.498 26.026Z" fill="url(#paint0_linear_9_3696)"/>
<path d="M0 16C0 10.3995 0 7.59921 1.08993 5.46009C2.04867 3.57847 3.57847 2.04867 5.46009 1.08993C7.59921 0 10.3995 0 16 0H18C23.6005 0 26.4008 0 28.5399 1.08993C30.4215 2.04867 31.9513 3.57847 32.9101 5.46009C34 7.59921 34 10.3995 34 16V18C34 23.6005 34 26.4008 32.9101 28.5399C31.9513 30.4215 30.4215 31.9513 28.5399 32.9101C26.4008 34 23.6005 34 18 34H16C10.3995 34 7.59921 34 5.46009 32.9101C3.57847 31.9513 2.04867 30.4215 1.08993 28.5399C0 26.4008 0 23.6005 0 18V16Z" fill="#006FF2"/>
<circle cx="17" cy="18.8137" r="3.81409" stroke="white" stroke-width="1.5" stroke-linecap="round" stroke-linejoin="round"/>
<path d="M7.99622 18.8137C7.99622 13.8411 12.0273 9.80994 17 9.80994C21.9726 9.80994 26.0037 13.8411 26.0037 18.8137" stroke="white" stroke-width="1.5" stroke-linecap="round" stroke-linejoin="round"/>
<defs>
<linearGradient id="paint0_linear_9_3696" x1="45.5" y1="26" x2="133" y2="12.5" gradientUnits="userSpaceOnUse">
<stop stop-color="#006FF2"/>
<stop offset="1" stop-color="#00C6C6"/>
</linearGradient>
</defs>
</svg>
